<?xml version="1.0" encoding="utf-8"?>
<!-- Generator: Adobe Illustrator 27.4.1, SVG Export Plug-In . SVG Version: 6.00 Build 0)  -->
<svg version="1.1" xmlns="http://www.w3.org/2000/svg" xmlns:xlink="http://www.w3.org/1999/xlink" x="0px" y="0px"
	 viewBox="0 0 100 150" style="enable-background:new 0 0 100 150;" xml:space="preserve">
<style type="text/css">
	.st0{fill:#D01317;}
</style>
<g id="Слой_1">
</g>
<g id="Слой_2">
	<path class="st0" d="M36.3,126.1L36.3,126.1c-2.2,0-4-1.8-4-4v-103c0-2.2,1.8-4,4-4h0c2.2,0,4,1.8,4,4v103
		C40.3,124.3,38.5,126.1,36.3,126.1z"/>
	<path class="st0" d="M34.4,53.6L34.4,53.6c-1.6-1.6-1.5-4.2,0.1-5.7l32.4-31.7c1.6-1.6,4.2-1.5,5.7,0.1l0,0
		c1.6,1.6,1.5,4.2-0.1,5.7L40.2,53.6C38.6,55.2,36,55.2,34.4,53.6z"/>
	<path class="st0" d="M34.4,80.9L34.4,80.9c-1.6-1.6-1.5-4.2,0.1-5.7l32.4-31.7c1.6-1.6,4.2-1.5,5.7,0.1l0,0
		c1.6,1.6,1.5,4.2-0.1,5.7L40.2,80.9C38.6,82.5,36,82.5,34.4,80.9z"/>
</g>
</svg>
