<?xml version="1.0" encoding="utf-8"?>
<!-- Generator: Adobe Illustrator 27.4.1, SVG Export Plug-In . SVG Version: 6.00 Build 0)  -->
<svg version="1.1" id="Слой_1" xmlns="http://www.w3.org/2000/svg" xmlns:xlink="http://www.w3.org/1999/xlink" x="0px" y="0px"
	 viewBox="0 0 100 150" style="enable-background:new 0 0 100 150;" xml:space="preserve">
<style type="text/css">
	.st0{fill:#D01317;}
</style>
<path class="st0" d="M23.6,126.1L23.6,126.1c-2.2,0-4-1.8-4-4v-103c0-2.2,1.8-4,4-4h0c2.2,0,4,1.8,4,4v103
	C27.6,124.3,25.8,126.1,23.6,126.1z"/>
<path class="st0" d="M75.5,126.7L75.5,126.7c-2.2,0-4-1.8-4-4V51.2c0-2.2,1.8-4,4-4h0c2.2,0,4,1.8,4,4v71.5
	C79.5,124.9,77.7,126.7,75.5,126.7z"/>
<path class="st0" d="M79,53.1L79,53.1c-1.2,1.9-3.7,2.5-5.6,1.3L21.5,22.5c-1.9-1.2-2.5-3.7-1.3-5.6l0,0c1.2-1.9,3.7-2.5,5.6-1.3
	l51.9,31.9C79.5,48.7,80.1,51.2,79,53.1z"/>
</svg>
