<svg xmlns="http://www.w3.org/2000/svg" viewBox="0 0 100 150"><style>.st0{fill:#e62137;stroke:#e52331;stroke-miterlimit:10}</style><g id="Слой_2"><path class="st0" d="M28 127.6c-2.3 0-4.2-1.9-4.2-4.2V23.1c0-2.3 1.9-4.2 4.2-4.2 2.3 0 4.2 1.9 4.2 4.2v100.3c0 2.3-1.9 4.2-4.2 4.2z"/><path class="st0" d="M62.3 67.7L28.1 36.9c.2 3.2.6 6.3-.5 9.5-.1.3-.3.6-.4.9l29.5 26.6c1.7 1.5 4.4 1.4 5.9-.3s1.4-4.3-.3-5.9z"/><path class="st0" d="M62.8 68.7c-1.4-1.8-4-2.2-5.9-.8l-31.2 24c1.6 2.5 2.5 5.4 2.8 8.4L62 74.5c1.8-1.4 2.2-4 .8-5.8z"/></g></svg>