<?xml version="1.0" encoding="utf-8"?>
<!-- Generator: Adobe Illustrator 27.4.1, SVG Export Plug-In . SVG Version: 6.00 Build 0)  -->
<svg version="1.1" id="Слой_1" xmlns="http://www.w3.org/2000/svg" xmlns:xlink="http://www.w3.org/1999/xlink" x="0px" y="0px"
	 viewBox="0 0 100 150" style="enable-background:new 0 0 100 150;" xml:space="preserve">
<style type="text/css">
	.st0{fill:#D01317;}
</style>
<path class="st0" d="M37.5,130.6L37.5,130.6c-2.2,0-4-1.8-4-4v-103c0-2.2,1.8-4,4-4h0c2.2,0,4,1.8,4,4v103
	C41.5,128.7,39.7,130.6,37.5,130.6z"/>
<path class="st0" d="M65.4,73.3L65.4,73.3c-1.6,1.6-4.1,1.6-5.7,0L36.3,50.1c-1.6-1.6-1.6-4.1,0-5.7l0,0c1.6-1.6,4.1-1.6,5.7,0
	l23.4,23.2C67,69.1,67,71.7,65.4,73.3z"/>
<path class="st0" d="M36.3,97L36.3,97c-1.6-1.6-1.6-4.2,0-5.7l23.4-23.2c1.6-1.6,4.2-1.6,5.7,0l0,0c1.6,1.6,1.6,4.2,0,5.7L42,97
	C40.5,98.6,37.9,98.6,36.3,97z"/>
</svg>
