<svg xmlns="http://www.w3.org/2000/svg" viewBox="0 0 100 150"><style>.st0{fill:#e62137;stroke:#e52331;stroke-miterlimit:10}</style><g id="Слой_2"><path class="st0" d="M28 127.6c-2.3 0-4.2-1.9-4.2-4.2V23.1c0-2.3 1.9-4.2 4.2-4.2 2.3 0 4.2 1.9 4.2 4.2v100.3c0 2.3-1.9 4.2-4.2 4.2z"/><path class="st0" d="M66.1 46.9L30 19.4c-.7.4-1.5.6-2.4.6-.3 0-.6 0-.9-.1-.2.8-.6 1.5-1.2 2.1.4 1.4.3 3-.4 4.2l35.8 27.2c1.8 1.4 4.5 1 5.9-.8 1.5-1.7 1.2-4.4-.7-5.7zm0 29.8L25.4 45.8c0 .1-.1.1-.1.2-.1.2-.3.3-.5.4 0 2.9.1 5.8.1 8.7 0 .3 0 .5-.1.8L61 83.4c1.8 1.4 4.5 1 5.9-.8 1.4-1.9 1.1-4.5-.8-5.9z"/></g></svg>