<?xml version="1.0" encoding="utf-8"?>
<!-- Generator: Adobe Illustrator 27.4.1, SVG Export Plug-In . SVG Version: 6.00 Build 0)  -->
<svg version="1.1" id="Слой_1" xmlns="http://www.w3.org/2000/svg" xmlns:xlink="http://www.w3.org/1999/xlink" x="0px" y="0px"
	 viewBox="0 0 100 150" style="enable-background:new 0 0 100 150;" xml:space="preserve">
<style type="text/css">
	.st0{fill:#D01317;}
</style>
<path class="st0" d="M35.2,128.8L35.2,128.8c-2.2,0-4-1.8-4-4v-103c0-2.2,1.8-4,4-4h0c2.2,0,4,1.8,4,4v103
	C39.2,127,37.4,128.8,35.2,128.8z"/>
<path class="st0" d="M69.5,57.2L69.5,57.2c-1.6,1.5-4.2,1.5-5.7-0.1L32.3,24.6c-1.5-1.6-1.5-4.2,0.1-5.7l0,0
	c1.6-1.5,4.2-1.5,5.7,0.1l31.5,32.5C71.2,53.1,71.1,55.7,69.5,57.2z"/>
<path class="st0" d="M69.5,87.3L69.5,87.3c-1.6,1.5-4.2,1.5-5.7-0.1L32.3,54.7c-1.5-1.6-1.5-4.2,0.1-5.7l0,0
	c1.6-1.5,4.2-1.5,5.7,0.1l31.5,32.5C71.2,83.2,71.1,85.7,69.5,87.3z"/>
</svg>
