<svg xmlns="http://www.w3.org/2000/svg" viewBox="0 0 100 150"><style>.st0{fill:#e62137;stroke:#e52331;stroke-miterlimit:10}</style><g id="Слой_2"><path class="st0" d="M28 127.6c-2.3 0-4.2-1.9-4.2-4.2V23.1c0-2.3 1.9-4.2 4.2-4.2 2.3 0 4.2 1.9 4.2 4.2v100.3c0 2.3-1.9 4.2-4.2 4.2z"/><path class="st0" d="M68.3 46.1l-39.1-27c-.2.1-.3.2-.5.3 0 0-.5.3-.7.4l-.5.5c-.2.2-.3.5-.5.8-.2.3-.4.7-.5 1 0 0-.1.3-.2.4-.1.2-.3.7-.3.7l-.3.9c-.3.7-.7 1.4-1.2 1.9l39 26.9c1.9 1.3 4.5.8 5.8-1.1 1.3-1.7.9-4.3-1-5.7z"/><path class="st0" d="M68.6 48.6c-1.3-1.9-3.9-2.5-5.8-1.2L26.7 70.8c.1 3.2.4 6.4.5 9.6l40.1-26c2-1.2 2.5-3.8 1.3-5.8z"/><path class="st0" d="M66.4 107.5L26.7 72.9c0 3.2.2 6.4 1.2 9.5.3 1 .3 2 .1 2.8l32.9 28.7c1.7 1.5 4.4 1.3 5.9-.4 1.5-1.8 1.3-4.5-.4-6z"/></g></svg>