<?xml version="1.0" encoding="utf-8"?>
<!-- Generator: Adobe Illustrator 27.4.1, SVG Export Plug-In . SVG Version: 6.00 Build 0)  -->
<svg version="1.1" id="Слой_1" xmlns="http://www.w3.org/2000/svg" xmlns:xlink="http://www.w3.org/1999/xlink" x="0px" y="0px"
	 viewBox="0 0 100 150" style="enable-background:new 0 0 100 150;" xml:space="preserve">
<style type="text/css">
	.st0{fill:#D01317;}
</style>
<path class="st0" d="M35.3,128.8L35.3,128.8c-2.2,0-4-1.8-4-4v-103c0-2.2,1.8-4,4-4h0c2.2,0,4,1.8,4,4v103
	C39.3,127,37.5,128.8,35.3,128.8z"/>
<path class="st0" d="M70.3,56.4L70.3,56.4c-1.6,1.6-4.1,1.6-5.7,0L32.4,24.6c-1.6-1.6-1.6-4.1,0-5.7l0,0c1.6-1.6,4.1-1.6,5.7,0
	l32.2,31.9C71.9,52.3,71.9,54.9,70.3,56.4z"/>
<path class="st0" d="M32.3,88.1L32.3,88.1c-1.6-1.6-1.5-4.2,0.1-5.7l32.3-31.7c1.6-1.6,4.2-1.5,5.7,0.1v0c1.6,1.6,1.5,4.2-0.1,5.7
	L38,88.2C36.4,89.8,33.9,89.7,32.3,88.1z"/>
<path class="st0" d="M72.2,118.2L72.2,118.2c-1.6,1.6-4.1,1.6-5.7,0L34.2,86.3c-1.6-1.6-1.6-4.1,0-5.7l0,0c1.6-1.6,4.1-1.6,5.7,0
	l32.2,31.9C73.7,114,73.7,116.6,72.2,118.2z"/>
</svg>
