<?xml version="1.0" encoding="utf-8"?>
<!-- Generator: Adobe Illustrator 27.4.1, SVG Export Plug-In . SVG Version: 6.00 Build 0)  -->
<svg version="1.1" id="Слой_1" xmlns="http://www.w3.org/2000/svg" xmlns:xlink="http://www.w3.org/1999/xlink" x="0px" y="0px"
	 viewBox="0 0 100 150" style="enable-background:new 0 0 100 150;" xml:space="preserve">
<style type="text/css">
	.st0{fill:#D01317;}
</style>
<path class="st0" d="M19.1,73.8L19.1,73.8c-1.6-1.6-1.6-4.2,0-5.7l50.7-50.4c1.6-1.6,4.2-1.6,5.7,0l0,0c1.6,1.6,1.6,4.2,0,5.7
	L24.8,73.8C23.3,75.4,20.7,75.4,19.1,73.8z"/>
<path class="st0" d="M75.9,123.9L75.9,123.9c-1.5,1.6-4.1,1.6-5.7,0.1L18.9,74.2c-1.6-1.5-1.6-4.1-0.1-5.7l0,0
	c1.5-1.6,4.1-1.6,5.7-0.1l51.3,49.8C77.4,119.7,77.4,122.3,75.9,123.9z"/>
</svg>
