<?xml version="1.0" encoding="utf-8"?>
<!-- Generator: Adobe Illustrator 27.4.1, SVG Export Plug-In . SVG Version: 6.00 Build 0)  -->
<svg version="1.1" id="Слой_1" xmlns="http://www.w3.org/2000/svg" xmlns:xlink="http://www.w3.org/1999/xlink" x="0px" y="0px"
	 viewBox="0 0 100 150" style="enable-background:new 0 0 100 150;" xml:space="preserve">
<style type="text/css">
	.st0{fill:#D01317;}
</style>
<path class="st0" d="M81.6,116.4L81.6,116.4c-1.8,1.3-4.4,0.9-5.6-1l-59.7-84c-1.3-1.8-0.9-4.4,1-5.6l0,0c1.8-1.3,4.4-0.9,5.6,1
	l59.7,84C83.8,112.6,83.4,115.1,81.6,116.4z"/>
<path class="st0" d="M18.8,117.6L18.8,117.6c-1.8-1.3-2.3-3.8-1-5.6l59.3-84.2c1.3-1.8,3.8-2.3,5.6-1l0,0c1.8,1.3,2.3,3.8,1,5.6
	l-59.3,84.2C23.2,118.4,20.7,118.9,18.8,117.6z"/>
</svg>
