<svg xmlns="http://www.w3.org/2000/svg" viewBox="0 0 100 150"><style>.st0{fill:#e62137;stroke:#e52331;stroke-miterlimit:10}</style><g id="Слой_2"><path class="st0" d="M28.4 125.7c-2.3 0-4.2-1.9-4.2-4.2V21.2c0-2.3 1.9-4.2 4.2-4.2 2.3 0 4.2 1.9 4.2 4.2v100.3c0 2.3-1.9 4.2-4.2 4.2z"/><path class="st0" d="M64.4 44.6L30.6 17.8c-.4.1-.7.1-1.1.1-1.8 0-3.4 3.8-4.7 5.9l34.4 27.3c1.8 1.4 4.4 1.1 5.9-.7 1.4-1.7 1.1-4.4-.7-5.8z"/><path class="st0" d="M59.2 45.1L25.3 71.8c0 .4 0 .7-.1 1.1-.4 1.7 2.9 4.2 4.7 5.9l34.5-27.2c1.8-1.4 2.1-4.1.7-5.9-1.4-1.7-4.1-2-5.9-.6z"/></g></svg>