<?xml version="1.0" encoding="utf-8"?>
<!-- Generator: Adobe Illustrator 27.4.1, SVG Export Plug-In . SVG Version: 6.00 Build 0)  -->
<svg version="1.1" id="Слой_1" xmlns="http://www.w3.org/2000/svg" xmlns:xlink="http://www.w3.org/1999/xlink" x="0px" y="0px"
	 viewBox="0 0 100 150" style="enable-background:new 0 0 100 150;" xml:space="preserve">
<style type="text/css">
	.st0{fill:#D01317;}
</style>
<path class="st0" d="M38.4,127.5L38.4,127.5c-2.2,0-4-1.8-4-4v-103c0-2.2,1.8-4,4-4h0c2.2,0,4,1.8,4,4v103
	C42.5,125.6,40.6,127.5,38.4,127.5z"/>
<path class="st0" d="M73.7,54.9L73.7,54.9c-1.6,1.6-4.1,1.6-5.7,0.1L35.6,23.3c-1.6-1.6-1.6-4.1-0.1-5.7l0,0
	c1.6-1.6,4.1-1.6,5.7-0.1l32.4,31.7C75.2,50.7,75.3,53.3,73.7,54.9z"/>
<path class="st0" d="M35.6,86.9L35.6,86.9c-1.6-1.6-1.6-4.2,0-5.7l32.2-31.9c1.6-1.6,4.2-1.6,5.7,0l0,0c1.6,1.6,1.6,4.2,0,5.7
	L41.4,87C39.8,88.5,37.2,88.5,35.6,86.9z"/>
</svg>
