<?xml version="1.0" encoding="utf-8"?>
<!-- Generator: Adobe Illustrator 27.4.1, SVG Export Plug-In . SVG Version: 6.00 Build 0)  -->
<svg version="1.1" id="Слой_1" xmlns="http://www.w3.org/2000/svg" xmlns:xlink="http://www.w3.org/1999/xlink" x="0px" y="0px"
	 viewBox="0 0 100 150" style="enable-background:new 0 0 100 150;" xml:space="preserve">
<style type="text/css">
	.st0{fill:#D01317;}
</style>
<path class="st0" d="M24.9,127.5L24.9,127.5c-2.2,0-4-1.8-4-4v-103c0-2.2,1.8-4,4-4h0c2.2,0,4,1.8,4,4v103
	C29,125.6,27.2,127.5,24.9,127.5z"/>
<path class="st0" d="M75.1,127.5L75.1,127.5c-2.2,0-4-1.8-4-4v-103c0-2.2,1.8-4,4-4h0c2.2,0,4,1.8,4,4v103
	C79.1,125.6,77.3,127.5,75.1,127.5z"/>
<path class="st0" d="M76.8,93.7L76.8,93.7c-1.4,1.7-4,2-5.7,0.6L23.8,55.8c-1.7-1.4-2-4-0.6-5.7l0,0c1.4-1.7,4-2,5.7-0.6L76.2,88
	C77.9,89.4,78.2,91.9,76.8,93.7z"/>
</svg>
