<?xml version="1.0" encoding="utf-8"?>
<!-- Generator: Adobe Illustrator 27.4.1, SVG Export Plug-In . SVG Version: 6.00 Build 0)  -->
<svg version="1.1" xmlns="http://www.w3.org/2000/svg" xmlns:xlink="http://www.w3.org/1999/xlink" x="0px" y="0px"
	 viewBox="0 0 100 150" style="enable-background:new 0 0 100 150;" xml:space="preserve">
<style type="text/css">
	.st0{fill:#E62137;stroke:#E52331;stroke-miterlimit:10;}
</style>
<g id="Слой_1">
</g>
<g id="Слой_2">
	<path class="st0" d="M28.4,125.7L28.4,125.7c-2.3,0-4.2-1.9-4.2-4.2V21.2c0-2.3,1.9-4.2,4.2-4.2h0c2.3,0,4.2,1.9,4.2,4.2v100.3
		C32.6,123.8,30.7,125.7,28.4,125.7z"/>
	<path class="st0" d="M73.2,126.5L73.2,126.5c-2.3,0-4.2-1.9-4.2-4.2V22c0-2.3,1.9-4.2,4.2-4.2h0c2.3,0,4.2,1.9,4.2,4.2v100.3
		C77.4,124.6,75.5,126.5,73.2,126.5z"/>
	<path class="st0" d="M24.5,42.4c-0.1,0.3-0.1,0.6-0.2,0.9c1.2,3.4,1.7,6.9,1.5,10l48.4,35.3c-0.1-3.9-1-7.6-1.5-11.4L24.6,42
		C24.6,42.1,24.6,42.3,24.5,42.4z"/>
</g>
</svg>
