<?xml version="1.0" encoding="utf-8"?>
<!-- Generator: Adobe Illustrator 27.4.1, SVG Export Plug-In . SVG Version: 6.00 Build 0)  -->
<svg version="1.1" id="Слой_2" xmlns="http://www.w3.org/2000/svg" xmlns:xlink="http://www.w3.org/1999/xlink" x="0px" y="0px"
	 viewBox="0 0 100 150" style="enable-background:new 0 0 100 150;" xml:space="preserve">
<style type="text/css">
	.st0{fill:#E62137;stroke:#E52331;stroke-miterlimit:10;}
</style>
<path class="st0" d="M48.4,127.9L48.4,127.9c-2.3,0-4.2-1.9-4.2-4.2V23.4c0-2.3,1.9-4.2,4.2-4.2h0c2.3,0,4.2,1.9,4.2,4.2v100.3
	C52.6,126,50.7,127.9,48.4,127.9z"/>
<g id="Слой_3">
	<path class="st0" d="M47.6,72.9c-1-2.1-1.7-3.5-1.8-6c0-1.8,0.8-3.1,1.9-3.9L18.7,41.1c-1.8-1.4-4.5-1-5.9,0.8s-1,4.5,0.8,5.9
		l34.2,25.7C47.8,73.3,47.7,73.1,47.6,72.9z"/>
	<path class="st0" d="M83.7,90.2L37.2,55.1c-0.4,3.1-1.5,6.2-2.8,8.4l44.3,33.4c1.8,1.4,4.5,1,5.9-0.8S85.6,91.5,83.7,90.2z"/>
</g>
</svg>
