<?xml version="1.0" encoding="utf-8"?>
<!-- Generator: Adobe Illustrator 27.4.1, SVG Export Plug-In . SVG Version: 6.00 Build 0)  -->
<svg version="1.1" id="Слой_1" xmlns="http://www.w3.org/2000/svg" xmlns:xlink="http://www.w3.org/1999/xlink" x="0px" y="0px"
	 viewBox="0 0 100 150" style="enable-background:new 0 0 100 150;" xml:space="preserve">
<style type="text/css">
	.st0{fill:#D01317;}
</style>
<path class="st0" d="M50,127.5L50,127.5c-2.2,0-4-1.8-4-4v-103c0-2.2,1.8-4,4-4h0c2.2,0,4,1.8,4,4v103C54,125.6,52.2,127.5,50,127.5
	z"/>
<path class="st0" d="M74.8,95.9L74.8,95.9c-1.5,1.6-4.1,1.6-5.7,0.1L25.3,53.6c-1.6-1.5-1.6-4.1-0.1-5.7l0,0
	c1.5-1.6,4.1-1.6,5.7-0.1l43.8,42.4C76.3,91.7,76.4,94.3,74.8,95.9z"/>
</svg>
