<?xml version="1.0" encoding="utf-8"?>
<!-- Generator: Adobe Illustrator 27.4.1, SVG Export Plug-In . SVG Version: 6.00 Build 0)  -->
<svg version="1.1" id="Слой_1" xmlns="http://www.w3.org/2000/svg" xmlns:xlink="http://www.w3.org/1999/xlink" x="0px" y="0px"
	 viewBox="0 0 100 150" style="enable-background:new 0 0 100 150;" xml:space="preserve">
<style type="text/css">
	.st0{fill:#D01317;}
</style>
<path class="st0" d="M10.6,60.6L10.6,60.6c-1.6-1.6-1.5-4.2,0-5.7L54,12c1.6-1.6,4.2-1.5,5.7,0l0,0c1.6,1.6,1.5,4.2,0,5.7L16.3,60.6
	C14.8,62.2,12.2,62.1,10.6,60.6z"/>
<path class="st0" d="M91.7,84.7L91.7,84.7c-1.6,1.6-4.1,1.6-5.7,0L53.7,53c-1.6-1.6-1.6-4.1,0-5.7l0,0c1.6-1.6,4.1-1.6,5.7,0
	L91.6,79C93.2,80.6,93.2,83.1,91.7,84.7z"/>
<path class="st0" d="M49.3,93.2L49.3,93.2c-1.6,1.6-4.1,1.6-5.7,0L11.3,61.4c-1.6-1.6-1.6-4.1,0-5.7l0,0c1.6-1.6,4.1-1.6,5.7,0
	l32.3,31.8C50.9,89,50.9,91.6,49.3,93.2z"/>
<path class="st0" d="M43.2,128.4L43.2,128.4c-1.6-1.6-1.5-4.2,0-5.7l43.4-42.8c1.6-1.6,4.2-1.5,5.7,0l0,0c1.6,1.6,1.5,4.2,0,5.7
	L49,128.4C47.4,129.9,44.8,129.9,43.2,128.4z"/>
</svg>
