<?xml version="1.0" encoding="utf-8"?>
<!-- Generator: Adobe Illustrator 27.4.1, SVG Export Plug-In . SVG Version: 6.00 Build 0)  -->
<svg version="1.1" xmlns="http://www.w3.org/2000/svg" xmlns:xlink="http://www.w3.org/1999/xlink" x="0px" y="0px"
	 viewBox="0 0 100 150" style="enable-background:new 0 0 100 150;" xml:space="preserve">
<style type="text/css">
	.st0{display:none;fill:#E62137;stroke:#E52331;stroke-miterlimit:10;}
	.st1{fill:#E62439;stroke:#E52633;stroke-miterlimit:10;}
</style>
<g id="Слой_1">
</g>
<g id="Слой_2">
	<path class="st0" d="M28.4,125.7L28.4,125.7c-2.3,0-4.2-1.9-4.2-4.2V21.2c0-2.3,1.9-4.2,4.2-4.2h0c2.3,0,4.2,1.9,4.2,4.2v100.3
		C32.6,123.8,30.7,125.7,28.4,125.7z"/>
	<path class="st1" d="M11,58.2L11,58.2c1.7,1.5,4.4,1.2,5.8-0.5l30.6-36.4c1.5-1.7,1.2-4.4-0.5-5.8l0,0c-1.7-1.5-4.4-1.2-5.8,0.5
		L10.5,52.4C9,54.1,9.3,56.7,11,58.2z"/>
	<path class="st1" d="M10.3,52.9L10.3,52.9c-1.5,1.7-1.4,4.3,0.3,5.9L46,90.5c1.7,1.5,4.3,1.4,5.9-0.3l0,0c1.5-1.7,1.4-4.3-0.3-5.9
		L16.1,52.6C14.4,51.1,11.8,51.2,10.3,52.9z"/>
	<path class="st1" d="M51.1,59.5L51.1,59.5c-1.5,1.7-1.4,4.3,0.3,5.9l35.4,31.7c1.7,1.5,4.3,1.4,5.9-0.3l0,0
		c1.5-1.7,1.4-4.3-0.3-5.9L56.9,59.2C55.2,57.6,52.6,57.8,51.1,59.5z"/>
	<path class="st1" d="M57.1,134.3L57.1,134.3c1.7,1.5,4.4,1.2,5.8-0.5l30.6-36.4c1.5-1.7,1.2-4.4-0.5-5.8l0,0
		c-1.7-1.5-4.4-1.2-5.8,0.5l-30.6,36.4C55.2,130.2,55.4,132.8,57.1,134.3z"/>
</g>
</svg>
