<?xml version="1.0" encoding="utf-8"?>
<!-- Generator: Adobe Illustrator 27.4.1, SVG Export Plug-In . SVG Version: 6.00 Build 0)  -->
<svg version="1.1" id="Слой_1" xmlns="http://www.w3.org/2000/svg" xmlns:xlink="http://www.w3.org/1999/xlink" x="0px" y="0px"
	 viewBox="0 0 100 150" style="enable-background:new 0 0 100 150;" xml:space="preserve">
<style type="text/css">
	.st0{fill:#D01317;}
</style>
<path class="st0" d="M50,128.5L50,128.5c-2.2,0-4-1.8-4-4v-103c0-2.2,1.8-4,4-4h0c2.2,0,4,1.8,4,4v103C54,126.7,52.2,128.5,50,128.5
	z"/>
<path class="st0" d="M76.4,47.4L76.4,47.4c-1.6,1.6-4.1,1.6-5.7,0.1l-23.5-23c-1.6-1.6-1.6-4.1-0.1-5.7l0,0c1.6-1.6,4.1-1.6,5.7-0.1
	l23.5,23C77.9,43.2,77.9,45.8,76.4,47.4z"/>
<path class="st0" d="M52.2,127.3L52.2,127.3c-1.6,1.6-4.1,1.6-5.7,0.1l-23.5-23c-1.6-1.6-1.6-4.1-0.1-5.7l0,0
	c1.6-1.6,4.1-1.6,5.7-0.1l23.5,23C53.8,123.2,53.8,125.7,52.2,127.3z"/>
</svg>
