<?xml version="1.0" encoding="utf-8"?>
<!-- Generator: Adobe Illustrator 27.4.1, SVG Export Plug-In . SVG Version: 6.00 Build 0)  -->
<svg version="1.1" xmlns="http://www.w3.org/2000/svg" xmlns:xlink="http://www.w3.org/1999/xlink" x="0px" y="0px"
	 viewBox="0 0 100 150" style="enable-background:new 0 0 100 150;" xml:space="preserve">
<style type="text/css">
	.st0{fill:#E62137;stroke:#E52331;stroke-miterlimit:10;}
	.st1{display:none;fill:#E62439;stroke:#E52633;stroke-miterlimit:10;}
	.st2{fill:#E62439;stroke:#E52633;stroke-miterlimit:10;}
</style>
<g id="Слой_1">
</g>
<g id="Слой_2">
	<path class="st0" d="M19,127.6L19,127.6c-2.3,0-4.2-1.9-4.2-4.2V23.1c0-2.3,1.9-4.2,4.2-4.2h0c2.3,0,4.2,1.9,4.2,4.2v100.3
		C23.2,125.7,21.3,127.6,19,127.6z"/>
	<path class="st1" d="M44.3,94.4L44.3,94.4c2.3,0,4.1-1.9,4.1-4.1V42.8c0-2.3-1.9-4.1-4.1-4.1h0c-2.3,0-4.1,1.9-4.1,4.1v47.5
		C40.2,92.6,42.1,94.4,44.3,94.4z"/>
	<path class="st2" d="M50.4,42L50.4,42c1.1-1.9,0.5-4.4-1.4-5.6L20.9,19.5c-1.9-1.1-4.4-0.5-5.6,1.4l0,0c-1.1,1.9-0.5,4.4,1.4,5.6
		l28.1,16.9C46.7,44.5,49.2,43.9,50.4,42z"/>
	<path class="st2" d="M43.5,41.6L43.5,41.6c1,2,3.5,2.8,5.4,1.8l29.2-14.9c2-1,2.8-3.5,1.8-5.4l0,0c-1-2-3.5-2.8-5.4-1.8L45.3,36.1
		C43.3,37.1,42.5,39.6,43.5,41.6z"/>
	<path class="st2" d="M15.3,125.4L15.3,125.4c1,2,3.5,2.8,5.4,1.8l29.2-14.9c2-1,2.8-3.5,1.8-5.4l0,0c-1-2-3.5-2.8-5.4-1.8L17,120
		C15,121,14.2,123.4,15.3,125.4z"/>
	<path class="st2" d="M81.1,127.5L81.1,127.5c1.1-1.9,0.5-4.4-1.4-5.6L51.6,105c-1.9-1.1-4.4-0.5-5.6,1.4h0
		c-1.1,1.9-0.5,4.4,1.4,5.6l28.1,16.9C77.4,130,79.9,129.4,81.1,127.5z"/>
</g>
</svg>
