<?xml version="1.0" encoding="utf-8"?>
<!-- Generator: Adobe Illustrator 27.4.1, SVG Export Plug-In . SVG Version: 6.00 Build 0)  -->
<svg version="1.1" id="Слой_1" xmlns="http://www.w3.org/2000/svg" xmlns:xlink="http://www.w3.org/1999/xlink" x="0px" y="0px"
	 viewBox="0 0 100 150" style="enable-background:new 0 0 100 150;" xml:space="preserve">
<style type="text/css">
	.st0{fill:#D01317;}
</style>
<path class="st0" d="M25.9,127.3L25.9,127.3c-2.2,0-4-1.8-4-4v-103c0-2.2,1.8-4,4-4h0c2.2,0,4,1.8,4,4v103
	C30,125.5,28.1,127.3,25.9,127.3z"/>
<path class="st0" d="M56.4,41.1L56.4,41.1c-1.3,1.8-3.8,2.3-5.6,1.1L23.6,23.6c-1.8-1.3-2.3-3.8-1.1-5.6l0,0
	c1.3-1.8,3.8-2.3,5.6-1.1l27.2,18.6C57.2,36.7,57.7,39.3,56.4,41.1z"/>
<path class="st0" d="M83.9,17.8L83.9,17.8c1.3,1.8,0.8,4.4-1,5.6l-27,18.8c-1.8,1.3-4.4,0.8-5.6-1l0,0c-1.3-1.8-0.8-4.4,1-5.6
	l27-18.8C80.1,15.5,82.6,16,83.9,17.8z"/>
<path class="st0" d="M56.3,102.2L56.3,102.2c1.3,1.8,0.8,4.4-1,5.6l-27,18.8c-1.8,1.3-4.4,0.8-5.6-1l0,0c-1.3-1.8-0.8-4.4,1-5.6
	l27-18.8C52.5,99.9,55,100.3,56.3,102.2z"/>
<path class="st0" d="M84,125.4L84,125.4c-1.3,1.8-3.8,2.3-5.6,1.1l-27.2-18.6c-1.8-1.3-2.3-3.8-1.1-5.6l0,0c1.3-1.8,3.8-2.3,5.6-1.1
	l27.2,18.6C84.8,121.1,85.2,123.6,84,125.4z"/>
</svg>
