<?xml version="1.0" encoding="utf-8"?>
<!-- Generator: Adobe Illustrator 27.4.1, SVG Export Plug-In . SVG Version: 6.00 Build 0)  -->
<svg version="1.1" id="Слой_1" xmlns="http://www.w3.org/2000/svg" xmlns:xlink="http://www.w3.org/1999/xlink" x="0px" y="0px"
	 viewBox="0 0 100 150" style="enable-background:new 0 0 100 150;" xml:space="preserve">
<style type="text/css">
	.st0{fill:#D01317;}
</style>
<path class="st0" d="M51.2,127.3L51.2,127.3c-2.2,0-4-1.8-4-4v-103c0-2.2,1.8-4,4-4h0c2.2,0,4,1.8,4,4v103
	C55.2,125.5,53.4,127.3,51.2,127.3z"/>
<path class="st0" d="M53.6,71.8L53.6,71.8c-1.8,1.4-4.3,1-5.7-0.7L10.8,22.7c-1.4-1.8-1-4.3,0.7-5.7l0,0c1.8-1.4,4.3-1,5.7,0.7
	l37.1,48.3C55.7,67.9,55.4,70.5,53.6,71.8z"/>
<path class="st0" d="M48.7,72.1L48.7,72.1c-1.8-1.3-2.1-3.9-0.8-5.7l36.8-48.6c1.3-1.8,3.9-2.1,5.7-0.8l0,0c1.8,1.3,2.1,3.9,0.8,5.7
	L54.4,71.3C53,73,50.5,73.4,48.7,72.1z"/>
</svg>
