<?xml version="1.0" encoding="utf-8"?>
<!-- Generator: Adobe Illustrator 27.4.1, SVG Export Plug-In . SVG Version: 6.00 Build 0)  -->
<svg version="1.1" xmlns="http://www.w3.org/2000/svg" xmlns:xlink="http://www.w3.org/1999/xlink" x="0px" y="0px"
	 viewBox="0 0 100 150" style="enable-background:new 0 0 100 150;" xml:space="preserve">
<style type="text/css">
	.st0{fill:#E62137;stroke:#E52331;stroke-miterlimit:10;}
	.st1{display:none;fill:#E62439;stroke:#E52633;stroke-miterlimit:10;}
	.st2{fill:#E62439;stroke:#E52633;stroke-miterlimit:10;}
</style>
<g id="Слой_1">
</g>
<g id="Слой_2">
	<path class="st0" d="M48.7,127.6L48.7,127.6c-2.3,0-4.2-1.9-4.2-4.2V23.1c0-2.3,1.9-4.2,4.2-4.2h0c2.3,0,4.2,1.9,4.2,4.2v100.3
		C52.8,125.7,51,127.6,48.7,127.6z"/>
	<path class="st1" d="M44.3,94.4L44.3,94.4c2.3,0,4.1-1.9,4.1-4.1V42.8c0-2.3-1.9-4.1-4.1-4.1h0c-2.3,0-4.1,1.9-4.1,4.1v47.5
		C40.2,92.6,42.1,94.4,44.3,94.4z"/>
	<path class="st2" d="M49.1,60.1L49.1,60.1c1.5-1.7,1.3-4.3-0.4-5.9L13,22.8c-1.7-1.5-4.3-1.3-5.9,0.4l0,0c-1.5,1.7-1.3,4.3,0.4,5.9
		l35.7,31.4C45,62,47.6,61.8,49.1,60.1z"/>
	<path class="st2" d="M48.7,60.3L48.7,60.3c1.5,1.7,4.2,1.8,5.9,0.3l35.4-31.7c1.7-1.5,1.8-4.2,0.3-5.9l0,0
		c-1.5-1.7-4.2-1.8-5.9-0.3L49,54.4C47.3,56,47.1,58.6,48.7,60.3z"/>
</g>
</svg>
