<?xml version="1.0" encoding="utf-8"?>
<!-- Generator: Adobe Illustrator 27.4.1, SVG Export Plug-In . SVG Version: 6.00 Build 0)  -->
<svg version="1.1" xmlns="http://www.w3.org/2000/svg" xmlns:xlink="http://www.w3.org/1999/xlink" x="0px" y="0px"
	 viewBox="0 0 100 150" style="enable-background:new 0 0 100 150;" xml:space="preserve">
<style type="text/css">
	.st0{display:none;}
	.st1{display:inline;fill:#E62137;stroke:#E52331;stroke-miterlimit:10;}
	.st2{fill:#E62439;stroke:#E52633;stroke-miterlimit:10;}
</style>
<g id="Слой_1">
</g>
<g id="Слой_2">
	<g id="Слой_5" class="st0">
		<path class="st1" d="M48.7,127.6L48.7,127.6c-2.3,0-4.2-1.9-4.2-4.2V23.1c0-2.3,1.9-4.2,4.2-4.2h0c2.3,0,4.2,1.9,4.2,4.2v100.3
			C52.8,125.7,51,127.6,48.7,127.6z"/>
	</g>
	<g id="Слой_3">
		<path class="st2" d="M22.9,82.6L22.9,82.6c2.1,1.3,4.8,0.7,6.1-1.3l40.3-62.6c1.3-2.1,0.7-4.8-1.3-6.1l0,0
			c-2.1-1.3-4.8-0.7-6.1,1.3L21.6,76.4C20.2,78.5,20.8,81.2,22.9,82.6z"/>
		<path class="st2" d="M36.9,133.7L36.9,133.7c2.1,1.3,4.8,0.7,6.1-1.3l40.3-62.6c1.3-2.1,0.7-4.8-1.3-6.1l0,0
			c-2.1-1.3-4.8-0.7-6.1,1.3l-40.3,62.6C34.3,129.6,34.9,132.4,36.9,133.7z"/>
		<path class="st2" d="M78.5,64.1c-0.1-0.4-0.1-0.7-0.1-1.1L24.9,74.7c-2.4,0.5-3.9,2.9-3.4,5.3c0.5,2.4,2.9,3.9,5.3,3.4l53.7-11.8
			C79.4,69.4,78.8,66.7,78.5,64.1z"/>
	</g>
</g>
</svg>
