<?xml version="1.0" encoding="utf-8"?>
<!-- Generator: Adobe Illustrator 27.4.1, SVG Export Plug-In . SVG Version: 6.00 Build 0)  -->
<svg version="1.1" id="Слой_1" xmlns="http://www.w3.org/2000/svg" xmlns:xlink="http://www.w3.org/1999/xlink" x="0px" y="0px"
	 viewBox="0 0 100 150" style="enable-background:new 0 0 100 150;" xml:space="preserve">
<style type="text/css">
	.st0{fill:#D01317;}
</style>
<path class="st0" d="M25.6,84.4L25.6,84.4c-2-0.9-2.9-3.4-1.9-5.4l30.4-64.7c0.9-2,3.4-2.9,5.4-1.9l0,0c2,0.9,2.9,3.4,1.9,5.4
	L31,82.5C30,84.5,27.6,85.3,25.6,84.4z"/>
<path class="st0" d="M40.5,137.6L40.5,137.6c-2-0.9-2.9-3.4-1.9-5.4L69,67.5c0.9-2,3.4-2.9,5.4-1.9h0c2,0.9,2.9,3.4,1.9,5.4
	l-30.4,64.7C44.9,137.7,42.5,138.5,40.5,137.6z"/>
<path class="st0" d="M24.3,81.6L24.3,81.6c-0.6-2.1,0.7-4.4,2.8-5l43.7-11.9c2.1-0.6,4.4,0.7,5,2.8v0c0.6,2.1-0.7,4.4-2.8,5
	L29.3,84.5C27.2,85.1,24.9,83.8,24.3,81.6z"/>
</svg>
