<?xml version="1.0" encoding="utf-8"?>
<!-- Generator: Adobe Illustrator 27.4.1, SVG Export Plug-In . SVG Version: 6.00 Build 0)  -->
<svg version="1.1" id="Слой_1" xmlns="http://www.w3.org/2000/svg" xmlns:xlink="http://www.w3.org/1999/xlink" x="0px" y="0px"
	 viewBox="0 0 100 150" style="enable-background:new 0 0 100 150;" xml:space="preserve">
<style type="text/css">
	.st0{fill:#D01317;}
</style>
<path class="st0" d="M49.2,126.9L49.2,126.9c-2.2,0-4-1.8-4-4v-103c0-2.2,1.8-4,4-4h0c2.2,0,4,1.8,4,4v103
	C53.2,125.1,51.4,126.9,49.2,126.9z"/>
<path class="st0" d="M17.4,57.8L17.4,57.8c-1.7-1.4-1.9-4-0.5-5.7l29.2-34.7c1.4-1.7,4-1.9,5.7-0.5l0,0c1.7,1.4,1.9,4,0.5,5.7
	L23.1,57.3C21.7,59,19.1,59.2,17.4,57.8z"/>
<path class="st0" d="M81.1,57.7L81.1,57.7c-1.7,1.4-4.3,1.2-5.7-0.5L46.1,22.6c-1.4-1.7-1.2-4.3,0.5-5.7l0,0
	c1.7-1.4,4.3-1.2,5.7,0.5L81.6,52C83,53.7,82.8,56.3,81.1,57.7z"/>
</svg>
