<?xml version="1.0" encoding="utf-8"?>
<!-- Generator: Adobe Illustrator 27.4.1, SVG Export Plug-In . SVG Version: 6.00 Build 0)  -->
<svg version="1.1" xmlns="http://www.w3.org/2000/svg" xmlns:xlink="http://www.w3.org/1999/xlink" x="0px" y="0px"
	 viewBox="0 0 100 150" style="enable-background:new 0 0 100 150;" xml:space="preserve">
<style type="text/css">
	.st0{fill:#E62137;stroke:#E52331;stroke-miterlimit:10;}
	.st1{fill:#E62439;stroke:#E52633;stroke-miterlimit:10;}
</style>
<g id="Слой_1">
</g>
<g id="Слой_2">
	<g id="Слой_5">
		<path class="st0" d="M48.7,127.6L48.7,127.6c-2.3,0-4.2-1.9-4.2-4.2V23.1c0-2.3,1.9-4.2,4.2-4.2h0c2.3,0,4.2,1.9,4.2,4.2v100.3
			C52.8,125.7,51,127.6,48.7,127.6z"/>
	</g>
	<g id="Слой_3">
		<path class="st1" d="M22.2,49.2L22.2,49.2c1.6,1.6,4.2,1.5,5.7,0l23-23.3c1.6-1.6,1.5-4.2,0-5.7l0,0c-1.6-1.6-4.2-1.5-5.7,0
			l-23,23.3C20.6,45,20.6,47.6,22.2,49.2z"/>
		<path class="st1" d="M75.3,49.4L75.3,49.4c1.6-1.5,1.6-4.1,0.1-5.7L52.6,20.2c-1.5-1.6-4.1-1.6-5.7-0.1l0,0
			c-1.6,1.5-1.6,4.1-0.1,5.7l22.8,23.6C71.1,50.9,73.7,51,75.3,49.4z"/>
	</g>
</g>
</svg>
