<?xml version="1.0" encoding="utf-8"?>
<!-- Generator: Adobe Illustrator 27.4.1, SVG Export Plug-In . SVG Version: 6.00 Build 0)  -->
<svg version="1.1" id="Слой_1" xmlns="http://www.w3.org/2000/svg" xmlns:xlink="http://www.w3.org/1999/xlink" x="0px" y="0px"
	 viewBox="0 0 100 150" style="enable-background:new 0 0 100 150;" xml:space="preserve">
<style type="text/css">
	.st0{fill:#D01317;}
</style>
<path class="st0" d="M33.9,128.5L33.9,128.5c-2.2,0-4-1.8-4-4v-103c0-2.2,1.8-4,4-4h0c2.2,0,4,1.8,4,4v103
	C37.9,126.7,36.1,128.5,33.9,128.5z"/>
<path class="st0" d="M74.1,50L74.1,50c-1.3,1.8-3.8,2.2-5.6,1l-37-26.2c-1.8-1.3-2.2-3.8-1-5.6l0,0c1.3-1.8,3.8-2.2,5.6-1l37,26.2
	C75,45.7,75.4,48.2,74.1,50z"/>
<path class="st0" d="M30.5,76L30.5,76c-1.3-1.8-0.8-4.4,1.1-5.6L69,44.9c1.8-1.3,4.4-0.8,5.6,1.1l0,0c1.3,1.8,0.8,4.4-1.1,5.6
	L36.2,77.1C34.3,78.4,31.8,77.9,30.5,76z"/>
<path class="st0" d="M75.9,100.6L75.9,100.6c-1.3,1.8-3.8,2.2-5.6,1l-37-26.2c-1.8-1.3-2.2-3.8-1-5.6l0,0c1.3-1.8,3.8-2.2,5.6-1
	l37,26.2C76.7,96.2,77.2,98.7,75.9,100.6z"/>
<path class="st0" d="M32,126.8L32,126.8c-1.3-1.8-0.8-4.4,1.1-5.6l37.4-25.5c1.8-1.3,4.4-0.8,5.6,1.1h0c1.3,1.8,0.8,4.4-1.1,5.6
	l-37.4,25.5C35.8,129.1,33.3,128.6,32,126.8z"/>
</svg>
