<?xml version="1.0" encoding="utf-8"?>
<!-- Generator: Adobe Illustrator 27.4.1, SVG Export Plug-In . SVG Version: 6.00 Build 0)  -->
<svg version="1.1" xmlns="http://www.w3.org/2000/svg" xmlns:xlink="http://www.w3.org/1999/xlink" x="0px" y="0px"
	 viewBox="0 0 100 150" style="enable-background:new 0 0 100 150;" xml:space="preserve">
<style type="text/css">
	.st0{fill:#E62137;stroke:#E52331;stroke-miterlimit:10;}
	.st1{fill:#E62439;stroke:#E52633;stroke-miterlimit:10;}
</style>
<g id="Слой_1">
</g>
<g id="Слой_2">
	<g id="Слой_5">
		<path class="st0" d="M25.5,126L25.5,126c-2.3,0-4.2-1.9-4.2-4.2V21.5c0-2.3,1.9-4.2,4.2-4.2h0c2.3,0,4.2,1.9,4.2,4.2v100.3
			C29.7,124.1,27.8,126,25.5,126z"/>
	</g>
	<g id="Слой_3">
		<path class="st1" d="M59.2,49.9L59.2,49.9c1.5-1.7,1.3-4.3-0.4-5.7L28.7,18.3C27,16.8,24.5,17,23,18.7l0,0
			c-1.5,1.7-1.3,4.3,0.4,5.7l30.1,25.9C55.2,51.7,57.8,51.5,59.2,49.9z"/>
		<path class="st1" d="M23,76.2L23,76.2c1.5,1.7,4,1.9,5.7,0.4l30-25.9c1.7-1.5,1.9-4,0.4-5.7l0,0c-1.5-1.7-4-1.9-5.7-0.4l-30,25.9
			C21.8,71.9,21.6,74.5,23,76.2z"/>
		<path class="st1" d="M59.2,98.5L59.2,98.5c1.5-1.7,1.3-4.3-0.4-5.7L28.7,67c-1.7-1.5-4.3-1.3-5.7,0.4l0,0
			c-1.5,1.7-1.3,4.3,0.4,5.7L53.5,99C55.2,100.4,57.8,100.2,59.2,98.5z"/>
		<path class="st1" d="M23,124.6L23,124.6c1.5,1.7,4,1.9,5.7,0.4l30-25.9c1.7-1.5,1.9-4,0.4-5.7l0,0c-1.5-1.7-4-1.9-5.7-0.4
			l-30,25.9C21.8,120.3,21.6,122.9,23,124.6z"/>
	</g>
</g>
</svg>
