<?xml version="1.0" encoding="utf-8"?>
<!-- Generator: Adobe Illustrator 27.4.1, SVG Export Plug-In . SVG Version: 6.00 Build 0)  -->
<svg version="1.1" id="Слой_1" xmlns="http://www.w3.org/2000/svg" xmlns:xlink="http://www.w3.org/1999/xlink" x="0px" y="0px"
	 viewBox="0 0 100 150" style="enable-background:new 0 0 100 150;" xml:space="preserve">
<style type="text/css">
	.st0{fill:#D01317;}
</style>
<path class="st0" d="M27.1,128.5L27.1,128.5c-2.2,0-4-1.8-4-4v-103c0-2.2,1.8-4,4-4h0c2.2,0,4,1.8,4,4v103
	C31.2,126.7,29.3,128.5,27.1,128.5z"/>
<path class="st0" d="M76.3,128.5L76.3,128.5c-2.2,0-4-1.8-4-4v-103c0-2.2,1.8-4,4-4h0c2.2,0,4,1.8,4,4v103
	C80.4,126.7,78.6,128.5,76.3,128.5z"/>
<path class="st0" d="M53.5,47.4L53.5,47.4c-1.6,1.6-4.1,1.6-5.7,0.1L24.3,24.4c-1.6-1.6-1.6-4.1-0.1-5.7l0,0
	c1.6-1.6,4.1-1.6,5.7-0.1l23.5,23.1C55,43.2,55,45.8,53.5,47.4z"/>
<path class="st0" d="M49,47.4L49,47.4c-1.6-1.6-1.5-4.2,0-5.7l23.4-23.1c1.6-1.6,4.2-1.5,5.7,0v0c1.6,1.6,1.5,4.2,0,5.7L54.7,47.4
	C53.1,49,50.5,49,49,47.4z"/>
</svg>
