<?xml version="1.0" encoding="utf-8"?>
<!-- Generator: Adobe Illustrator 27.4.1, SVG Export Plug-In . SVG Version: 6.00 Build 0)  -->
<svg version="1.1" xmlns="http://www.w3.org/2000/svg" xmlns:xlink="http://www.w3.org/1999/xlink" x="0px" y="0px"
	 viewBox="0 0 100 150" style="enable-background:new 0 0 100 150;" xml:space="preserve">
<style type="text/css">
	.st0{fill:#E62137;stroke:#E52331;stroke-miterlimit:10;}
	.st1{fill:#E62439;stroke:#E52633;stroke-miterlimit:10;}
</style>
<g id="Слой_1">
</g>
<g id="Слой_2">
	<g id="Слой_5">
		<path class="st0" d="M25.5,126L25.5,126c-2.3,0-4.2-1.9-4.2-4.2V21.5c0-2.3,1.9-4.2,4.2-4.2h0c2.3,0,4.2,1.9,4.2,4.2v100.3
			C29.7,124.1,27.8,126,25.5,126z"/>
		<path class="st0" d="M73.9,126.5L73.9,126.5c-2.3,0-4.2-1.9-4.2-4.2V22c0-2.3,1.9-4.2,4.2-4.2h0c2.3,0,4.2,1.9,4.2,4.2v100.3
			C78.1,124.6,76.2,126.5,73.9,126.5z"/>
	</g>
	<g id="Слой_3">
		<path class="st1" d="M52,46.7L52,46.7c1.5-1.6,1.5-4.2-0.1-5.7L28.1,18.4c-1.6-1.5-4.2-1.5-5.7,0.1l0,0c-1.5,1.6-1.5,4.2,0.1,5.7
			l23.8,22.6C47.9,48.4,50.5,48.3,52,46.7z"/>
		<path class="st1" d="M46.8,46.5L46.8,46.5c1.5,1.6,4.1,1.7,5.7,0.2l24.1-22.2c1.6-1.5,1.7-4.1,0.2-5.7l0,0
			c-1.5-1.6-4.1-1.7-5.7-0.2L47,40.8C45.4,42.3,45.3,44.8,46.8,46.5z"/>
	</g>
</g>
</svg>
