<?xml version="1.0" encoding="utf-8"?>
<!-- Generator: Adobe Illustrator 27.4.1, SVG Export Plug-In . SVG Version: 6.00 Build 0)  -->
<svg version="1.1" id="Слой_1" xmlns="http://www.w3.org/2000/svg" xmlns:xlink="http://www.w3.org/1999/xlink" x="0px" y="0px"
	 viewBox="0 0 100 150" style="enable-background:new 0 0 100 150;" xml:space="preserve">
<style type="text/css">
	.st0{fill:#D01317;}
</style>
<path class="st0" d="M20.7,128.5L20.7,128.5c-2.2,0-4-1.8-4-4v-103c0-2.2,1.8-4,4-4h0c2.2,0,4,1.8,4,4v103
	C24.7,126.7,22.9,128.5,20.7,128.5z"/>
<path class="st0" d="M80.4,128.5L80.4,128.5c-2.2,0-4-1.8-4-4v-103c0-2.2,1.8-4,4-4h0c2.2,0,4,1.8,4,4v103
	C84.4,126.7,82.6,128.5,80.4,128.5z"/>
<path class="st0" d="M79,75.1c-0.1-0.9-0.1-1.7,0.1-2.5l-55.7-54c-1.6-1.5-4.2-1.5-5.7,0.1h0c-1.5,1.6-1.5,4.2,0.1,5.7L78.2,83
	c0.7,0.7,1.7,1.1,2.6,1.1C80,81.2,79.5,78.1,79,75.1z"/>
<path class="st0" d="M82.8,19.2L82.8,19.2c-1.6-1.6-4.1-1.6-5.7,0L19.1,76.5c0.7,2.8,0.7,5.7,1,8.7c1,0,2.1-0.4,2.9-1.2l59.8-59.2
	C84.3,23.3,84.3,20.8,82.8,19.2z"/>
</svg>
