<?xml version="1.0" encoding="utf-8"?>
<!-- Generator: Adobe Illustrator 27.4.1, SVG Export Plug-In . SVG Version: 6.00 Build 0)  -->
<svg version="1.1" xmlns="http://www.w3.org/2000/svg" xmlns:xlink="http://www.w3.org/1999/xlink" x="0px" y="0px"
	 viewBox="0 0 100 150" style="enable-background:new 0 0 100 150;" xml:space="preserve">
<style type="text/css">
	.st0{fill:#E62137;stroke:#E52331;stroke-miterlimit:10;}
	.st1{fill:#E62439;stroke:#E52633;stroke-miterlimit:10;}
</style>
<g id="Слой_1">
</g>
<g id="Слой_2">
	<g id="Слой_5">
		<path class="st0" d="M25.5,126L25.5,126c-2.3,0-4.2-1.9-4.2-4.2V21.5c0-2.3,1.9-4.2,4.2-4.2h0c2.3,0,4.2,1.9,4.2,4.2v100.3
			C29.7,124.1,27.8,126,25.5,126z"/>
		<path class="st0" d="M81.2,126L81.2,126c-2.3,0-4.2-1.9-4.2-4.2V21.5c0-2.3,1.9-4.2,4.2-4.2h0c2.3,0,4.2,1.9,4.2,4.2v100.3
			C85.3,124.1,83.5,126,81.2,126z"/>
		<path class="st1" d="M81.4,77.7L81.4,77.7c1.7-1.7,1.7-4.6,0-6.3L28.9,18.6c-1.7-1.7-4.6-1.7-6.3,0l0,0c-1.7,1.7-1.7,4.6,0,6.3
			l52.6,52.8C76.9,79.4,79.7,79.4,81.4,77.7z"/>
		<path class="st1" d="M24.2,79.3L24.2,79.3c1.7,1.7,4.6,1.7,6.3,0l52.3-53c1.7-1.7,1.7-4.6,0-6.3l0,0c-1.7-1.7-4.6-1.7-6.3,0
			L24.1,73C22.4,74.7,22.4,77.5,24.2,79.3z"/>
	</g>
	<g id="Слой_3">
	</g>
</g>
</svg>
