<?xml version="1.0" encoding="utf-8"?>
<!-- Generator: Adobe Illustrator 27.4.1, SVG Export Plug-In . SVG Version: 6.00 Build 0)  -->
<svg version="1.1" id="Слой_1" xmlns="http://www.w3.org/2000/svg" xmlns:xlink="http://www.w3.org/1999/xlink" x="0px" y="0px"
	 viewBox="0 0 100 150" style="enable-background:new 0 0 100 150;" xml:space="preserve">
<style type="text/css">
	.st0{fill:#D01317;}
</style>
<path class="st0" d="M40.1,128.5L40.1,128.5c-2.2,0-4-1.8-4-4v-103c0-2.2,1.8-4,4-4h0c2.2,0,4,1.8,4,4v103
	C44.1,126.7,42.3,128.5,40.1,128.5z"/>
<path class="st0" d="M75.5,57L75.5,57c-1.6,1.5-4.2,1.5-5.7-0.1L38.4,24.3c-1.5-1.6-1.5-4.2,0.1-5.7l0,0c1.6-1.5,4.2-1.5,5.7,0.1
	l31.4,32.6C77.2,52.9,77.1,55.5,75.5,57z"/>
</svg>
