<?xml version="1.0" encoding="utf-8"?>
<!-- Generator: Adobe Illustrator 27.4.1, SVG Export Plug-In . SVG Version: 6.00 Build 0)  -->
<svg version="1.1" xmlns="http://www.w3.org/2000/svg" xmlns:xlink="http://www.w3.org/1999/xlink" x="0px" y="0px"
	 viewBox="0 0 100 150" style="enable-background:new 0 0 100 150;" xml:space="preserve">
<style type="text/css">
	.st0{fill:#E62137;stroke:#E52331;stroke-miterlimit:10;}
	.st1{fill:#E62439;stroke:#E52633;stroke-miterlimit:10;}
</style>
<g id="Слой_1">
</g>
<g id="Слой_2">
	<g id="Слой_5">
		<path class="st0" d="M35.7,126L35.7,126c-2.3,0-4.2-1.9-4.2-4.2V21.5c0-2.3,1.9-4.2,4.2-4.2h0c2.3,0,4.2,1.9,4.2,4.2v100.3
			C39.9,124.1,38,126,35.7,126z"/>
		<path class="st1" d="M69.1,52.4L69.1,52.4c1.5-1.6,1.4-4.2-0.2-5.7L40,19.5c-1.6-1.5-4.2-1.4-5.7,0.2l0,0
			c-1.5,1.6-1.4,4.2,0.2,5.7l28.9,27.2C65,54.1,67.6,54,69.1,52.4z"/>
	</g>
	<g id="Слой_3">
	</g>
</g>
</svg>
