<?xml version="1.0" encoding="utf-8"?>
<!-- Generator: Adobe Illustrator 27.4.1, SVG Export Plug-In . SVG Version: 6.00 Build 0)  -->
<svg version="1.1" id="Слой_1" xmlns="http://www.w3.org/2000/svg" xmlns:xlink="http://www.w3.org/1999/xlink" x="0px" y="0px"
	 viewBox="0 0 100 150" style="enable-background:new 0 0 100 150;" xml:space="preserve">
<style type="text/css">
	.st0{fill:#D01317;}
</style>
<path class="st0" d="M21.7,74.7L21.7,74.7c-1.6-1.6-1.5-4.2,0-5.7l50.9-50.2c1.6-1.6,4.2-1.5,5.7,0l0,0c1.6,1.6,1.5,4.2,0,5.7
	L27.4,74.8C25.8,76.4,23.2,76.3,21.7,74.7z"/>
<path class="st0" d="M78.4,74.7L78.4,74.7c-1.6,1.6-4.1,1.6-5.7,0.1l-51-50.1c-1.6-1.6-1.6-4.1-0.1-5.7l0,0c1.6-1.6,4.1-1.6,5.7-0.1
	l51,50.1C79.9,70.5,79.9,73.1,78.4,74.7z"/>
<path class="st0" d="M21.7,124.9L21.7,124.9c-1.6-1.6-1.5-4.2,0-5.7L72.6,69c1.6-1.6,4.2-1.5,5.7,0l0,0c1.6,1.6,1.5,4.2,0,5.7
	l-50.9,50.2C25.8,126.5,23.2,126.5,21.7,124.9z"/>
<path class="st0" d="M78.4,124.9L78.4,124.9c-1.6,1.6-4.1,1.6-5.7,0.1l-51-50.1c-1.6-1.6-1.6-4.1-0.1-5.7l0,0
	c1.6-1.6,4.1-1.6,5.7-0.1l51,50.1C79.9,120.7,79.9,123.3,78.4,124.9z"/>
</svg>
