<?xml version="1.0" encoding="utf-8"?>
<!-- Generator: Adobe Illustrator 27.4.1, SVG Export Plug-In . SVG Version: 6.00 Build 0)  -->
<svg version="1.1" xmlns="http://www.w3.org/2000/svg" xmlns:xlink="http://www.w3.org/1999/xlink" x="0px" y="0px"
	 viewBox="0 0 100 150" style="enable-background:new 0 0 100 150;" xml:space="preserve">
<style type="text/css">
	.st0{display:none;}
	.st1{display:inline;}
	.st2{fill:#E62137;stroke:#E52331;stroke-miterlimit:10;}
	.st3{fill:#E62439;stroke:#E52633;stroke-miterlimit:10;}
</style>
<g id="Слой_1">
</g>
<g id="Слой_2" class="st0">
	<g id="Слой_5" class="st1">
		<path class="st2" d="M22.8,122.5L22.8,122.5c-2.3,0-4.2-1.9-4.2-4.2V18c0-2.3,1.9-4.2,4.2-4.2h0c2.3,0,4.2,1.9,4.2,4.2v100.3
			C27,120.6,25.1,122.5,22.8,122.5z"/>
		<path class="st3" d="M70.2,100.9L70.2,100.9c2.4,0,4.4-2,4.4-4.4V22c0-2.4-2-4.4-4.4-4.4h0c-2.4,0-4.4,2-4.4,4.4v74.5
			C65.8,98.9,67.8,100.9,70.2,100.9z"/>
	</g>
	<g id="Слой_3" class="st1">
	</g>
</g>
<g id="Слой_6">
	<path class="st3" d="M18.8,71.5L18.8,71.5c1.7,1.7,4.6,1.7,6.3,0l52.7-52.7c1.7-1.7,1.7-4.6,0-6.3l0,0c-1.7-1.7-4.6-1.7-6.3,0
		L18.8,65.2C17.1,66.9,17.1,69.7,18.8,71.5z"/>
	<path class="st3" d="M79.8,71.1L79.8,71.1c1.7-1.8,1.7-4.6-0.1-6.3l-53.3-52c-1.8-1.7-4.6-1.7-6.3,0.1l0,0
		c-1.7,1.8-1.7,4.6,0.1,6.3l53.3,52C75.3,72.9,78.1,72.8,79.8,71.1z"/>
	<path class="st3" d="M78.1,123.9L78.1,123.9c1.7-1.8,1.7-4.6-0.1-6.3l-53.3-52c-1.8-1.7-4.6-1.7-6.3,0.1h0
		c-1.7,1.8-1.7,4.6,0.1,6.3l53.3,52C73.6,125.7,76.4,125.7,78.1,123.9z"/>
	<path class="st3" d="M20.5,124.3L20.5,124.3c1.7,1.7,4.6,1.7,6.3,0l52.7-52.7c1.7-1.7,1.7-4.6,0-6.3l0,0c-1.7-1.7-4.6-1.7-6.3,0
		L20.5,118C18.8,119.7,18.8,122.6,20.5,124.3z"/>
</g>
</svg>
