<?xml version="1.0" encoding="utf-8"?>
<!-- Generator: Adobe Illustrator 27.4.1, SVG Export Plug-In . SVG Version: 6.00 Build 0)  -->
<svg version="1.1" id="Слой_1" xmlns="http://www.w3.org/2000/svg" xmlns:xlink="http://www.w3.org/1999/xlink" x="0px" y="0px"
	 viewBox="0 0 100 150" style="enable-background:new 0 0 100 150;" xml:space="preserve">
<style type="text/css">
	.st0{fill:#D01317;}
</style>
<path class="st0" d="M19,125.4L19,125.4c-2.2,0-4-1.8-4-4v-103c0-2.2,1.8-4,4-4h0c2.2,0,4,1.8,4,4v103C23,123.6,21.2,125.4,19,125.4
	z"/>
<path class="st0" d="M83.9,126.8L83.9,126.8c-2.2,0-4-1.8-4-4v-103c0-2.2,1.8-4,4-4h0c2.2,0,4,1.8,4,4v103
	C87.9,125,86.1,126.8,83.9,126.8z"/>
<path class="st0" d="M16.8,125.5L16.8,125.5c-1.9-1.2-2.4-3.7-1.2-5.6l55.2-87c1.2-1.9,3.7-2.4,5.6-1.2l0,0c1.9,1.2,2.4,3.7,1.2,5.6
	l-55.2,87C21.2,126.1,18.7,126.7,16.8,125.5z"/>
<path class="st0" d="M86.2,17.5c-0.3,0-0.5,0.1-0.8,0.1c-1,0-1.8-0.2-2.5-0.6c-0.4,0.2-0.8,0.3-1.2,0.5c-0.4,0.1-0.7,0.2-1.1,0.2
	L30.2,96.9c-1.2,1.9-0.6,4.4,1.2,5.6c1.9,1.2,4.4,0.6,5.6-1.2l50.5-79.5c-0.1-0.2-0.1-0.4-0.2-0.6C87,19.5,86.8,18.5,86.2,17.5z"/>
<path class="st0" d="M86,126.9L86,126.9c-1.9,1.2-4.4,0.6-5.6-1.3L26.2,38c-1.2-1.9-0.6-4.4,1.3-5.6l0,0c1.9-1.2,4.4-0.6,5.6,1.3
	l54.2,87.6C88.5,123.2,87.9,125.7,86,126.9z"/>
<path class="st0" d="M71.6,95.9L22.8,17.1c-0.3,0.5-0.6,1-1,1.4c-1.1,1.1-2.4,1.6-3.8,1.7c0.1,1.1-0.2,2.2-0.7,3.1
	c0,0.1-0.1,0.1-0.1,0.2l47.5,76.7c1.2,1.9,3.7,2.5,5.6,1.3C72.2,100.3,72.8,97.8,71.6,95.9z"/>
</svg>
