<?xml version="1.0" encoding="utf-8"?>
<!-- Generator: Adobe Illustrator 27.4.1, SVG Export Plug-In . SVG Version: 6.00 Build 0)  -->
<svg version="1.1" xmlns="http://www.w3.org/2000/svg" xmlns:xlink="http://www.w3.org/1999/xlink" x="0px" y="0px"
	 viewBox="0 0 100 150" style="enable-background:new 0 0 100 150;" xml:space="preserve">
<style type="text/css">
	.st0{fill:#E62137;stroke:#E52331;stroke-miterlimit:10;}
</style>
<g id="Слой_1">
</g>
<g id="Слой_2">
	<g id="Слой_5">
		<path class="st0" d="M20.8,125.2L20.8,125.2c-2.3,0-4.2-1.9-4.2-4.2V20.7c0-2.3,1.9-4.2,4.2-4.2h0c2.3,0,4.2,1.9,4.2,4.2V121
			C24.9,123.3,23.1,125.2,20.8,125.2z"/>
		<path class="st0" d="M82.6,125.2L82.6,125.2c-2.3,0-4.2-1.9-4.2-4.2V20.7c0-2.3,1.9-4.2,4.2-4.2h0c2.3,0,4.2,1.9,4.2,4.2V121
			C86.8,123.3,84.9,125.2,82.6,125.2z"/>
		<path class="st0" d="M19.2,123.8L19.2,123.8c-2-1.2-2.6-3.8-1.4-5.7l52.5-85.5c1.2-2,3.8-2.6,5.7-1.4l0,0c2,1.2,2.6,3.8,1.4,5.7
			l-52.5,85.5C23.7,124.4,21.1,125,19.2,123.8z"/>
		<path class="st0" d="M28,109.7L28,109.7c-2-1.2-2.6-3.8-1.4-5.7l52.5-85.5c1.2-2,3.8-2.6,5.7-1.4l0,0c2,1.2,2.6,3.8,1.4,5.7
			l-52.5,85.5C32.5,110.3,29.9,110.9,28,109.7z"/>
		<path class="st0" d="M75.6,109.7L75.6,109.7c-2,1.2-4.5,0.6-5.8-1.4L17.2,22.9c-1.2-2-0.6-4.5,1.4-5.8l0,0c2-1.2,4.5-0.6,5.8,1.4
			L77,103.9C78.2,105.9,77.5,108.5,75.6,109.7z"/>
		<path class="st0" d="M84.9,124.8L84.9,124.8c-2,1.2-4.5,0.6-5.8-1.4L26.5,38c-1.2-2-0.6-4.5,1.4-5.8l0,0c2-1.2,4.5-0.6,5.8,1.4
			l52.6,85.4C87.5,121,86.9,123.6,84.9,124.8z"/>
	</g>
	<g id="Слой_3">
	</g>
</g>
<g id="Слой_6">
</g>
</svg>
