<?xml version="1.0" encoding="utf-8"?>
<!-- Generator: Adobe Illustrator 27.4.1, SVG Export Plug-In . SVG Version: 6.00 Build 0)  -->
<svg version="1.1" xmlns="http://www.w3.org/2000/svg" xmlns:xlink="http://www.w3.org/1999/xlink" x="0px" y="0px"
	 viewBox="0 0 100 150" style="enable-background:new 0 0 100 150;" xml:space="preserve">
<style type="text/css">
	.st0{fill:#E62137;stroke:#E52331;stroke-miterlimit:10;}
</style>
<g id="Слой_1">
</g>
<g id="Слой_2">
	<g id="Слой_5">
		<path class="st0" d="M88,131.4L88,131.4c-1.7,1.5-4.4,1.4-5.9-0.3L14.9,56.5c-1.5-1.7-1.4-4.4,0.3-5.9l0,0
			c1.7-1.5,4.4-1.4,5.9,0.3l67.1,74.5C89.8,127.2,89.7,129.8,88,131.4z"/>
		<path class="st0" d="M19.1,131.1L19.1,131.1c-1.7-1.5-1.8-4.2-0.3-5.9l67.6-74.1c1.5-1.7,4.2-1.8,5.9-0.3l0,0
			c1.7,1.5,1.8,4.2,0.3,5.9L25,130.9C23.5,132.6,20.8,132.7,19.1,131.1z"/>
		<path class="st0" d="M93.1,52.2c0-0.1,0.1-0.2,0.1-0.3L57.3,12c-1.5-1.7-4.2-1.8-5.9-0.3v0c-1.7,1.5-1.8,4.2-0.3,5.9l38.4,42.6
			C91.6,57.9,92.5,55.3,93.1,52.2z"/>
		<path class="st0" d="M56.2,11.7c-1.7-1.5-4.4-1.4-5.9,0.3L14.7,51.1c0,0.4,0.1,0.7,0,1.1c0,0.4-0.1,0.8-0.2,1.2
			c1.5,1.8,2.8,3.7,3.6,5.9c0.5-0.9,1.3-1.6,2.3-2l36.1-39.6C58,15.9,57.9,13.3,56.2,11.7z"/>
	</g>
	<g id="Слой_3">
	</g>
</g>
<g id="Слой_6">
</g>
</svg>
