<?xml version="1.0" encoding="utf-8"?>
<!-- Generator: Adobe Illustrator 27.4.1, SVG Export Plug-In . SVG Version: 6.00 Build 0)  -->
<svg version="1.1" id="Слой_1" xmlns="http://www.w3.org/2000/svg" xmlns:xlink="http://www.w3.org/1999/xlink" x="0px" y="0px"
	 viewBox="0 0 100 150" style="enable-background:new 0 0 100 150;" xml:space="preserve">
<style type="text/css">
	.st0{fill:#D01317;}
</style>
<path class="st0" d="M19,116.3L19,116.3c-1.6-1.6-1.5-4.2,0-5.7l60-59c1.6-1.6,4.2-1.5,5.7,0l0,0c1.6,1.6,1.5,4.2,0,5.7l-60,59
	C23.1,117.9,20.5,117.9,19,116.3z"/>
<path class="st0" d="M84.7,116.2L84.7,116.2c-1.6,1.6-4.1,1.6-5.7,0.1L19,57.4c-1.6-1.6-1.6-4.1-0.1-5.7l0,0
	c1.6-1.6,4.1-1.6,5.7-0.1l60,58.9C86.3,112.1,86.3,114.7,84.7,116.2z"/>
<path class="st0" d="M54.8,21.8c-1.6-1.6-4.1-1.6-5.7,0L18.1,52.6c1.7,2.4,2.3,5.1,4.1,7.3l32.6-32.4C56.4,26,56.4,23.4,54.8,21.8z"
	/>
<path class="st0" d="M82.9,56.1C82.9,56.1,82.9,56.1,82.9,56.1c0.5-1.6,1.2-3.2,1.7-4.8l-29.4-29c-1.6-1.6-4.2-1.5-5.7,0h0
	c-1.6,1.6-1.5,4.2,0,5.7l29.8,29.4C80.2,56.7,81.7,56,82.9,56.1z"/>
</svg>
