<svg xmlns="http://www.w3.org/2000/svg" viewBox="0 0 100 150"><style>.st0{fill:#e62137;stroke:#e52331;stroke-miterlimit:10}</style><g id="Слой_2"><path class="st0" d="M28 127.6c-2.3 0-4.2-1.9-4.2-4.2V23.1c0-2.3 1.9-4.2 4.2-4.2 2.3 0 4.2 1.9 4.2 4.2v100.3c0 2.3-1.9 4.2-4.2 4.2z"/><path class="st0" d="M75.1 20.7c-1.3-1.9-3.9-2.3-5.8-1l-45 31.5c0 .1.1.2.1.4.6 2.5.9 5 .7 7.5v1.7l49-34.3c1.9-1.3 2.3-3.9 1-5.8zm0 28.9c-1.3-1.9-3.9-2.3-5.8-1l-45 31.5c0 .1.1.2.1.4.6 2.5.9 5 .7 7.5v1.7l49-34.3c1.9-1.3 2.3-4 1-5.8z"/></g></svg>