<svg xmlns="http://www.w3.org/2000/svg" viewBox="0 0 100 150"><style>.st0{fill:#e62137;stroke:#e52331;stroke-miterlimit:10}</style><g id="Слой_2"><path class="st0" d="M28 127.6c-2.3 0-4.2-1.9-4.2-4.2V23.1c0-2.3 1.9-4.2 4.2-4.2 2.3 0 4.2 1.9 4.2 4.2v100.3c0 2.3-1.9 4.2-4.2 4.2zM78.3 76c-2.8 0-5.6.1-8.2-.6v48c0 2.3 1.9 4.2 4.2 4.2s4.2-1.9 4.2-4.2V76h-.2z"/><path class="st0" d="M78.5 97.7v-47c0-2.3-1.9-4.2-4.2-4.2s-4.2 1.9-4.2 4.2v47.1c2.7-.4 5.7-.8 8.4-.1z"/><path class="st0" d="M74.9 49.1c.3-.8.8-1.5 1.4-2.1L30.5 19.5c-2-1.2-4.6-.5-5.7 1.4s-.5 4.6 1.4 5.7l48.4 29.1c-.6-2.1-.5-4.4.3-6.6z"/></g></svg>