<svg xmlns="http://www.w3.org/2000/svg" viewBox="0 0 100 150"><style>.st0{fill:#e62137;stroke:#e52331;stroke-miterlimit:10}</style><g id="Слой_2"><g id="Слой_3"><path class="st0" d="M75.5 25.2c-1.6-1.6-4.3-1.6-5.9.1L25.3 70.5c.4.6.7 1.3.8 2l.6.6c.8.8 1.7 1.6 2.4 2.5.4.5.8 1.1 1.2 1.7l45.2-46.1c1.6-1.7 1.6-4.4 0-6z"/><path class="st0" d="M60.8 34.3L22.1 73.7c-1.6 1.6-1.6 4.3.1 5.9 1.6 1.6 4.3 1.6 5.9-.1l38-38.7c-2-2-4.2-4.2-5.3-6.5z"/><path class="st0" d="M75.5 128.8c1.6-1.6 1.7-4.3.1-5.9L31.3 77.8c-.6.4-1.3.7-2 .8l-.6.6c-.8.8-1.6 1.7-2.5 2.4-.5.4-1.1.8-1.7 1.1l45.2 46.1c1.5 1.6 4.2 1.7 5.8 0z"/><path class="st0" d="M66.7 114L28.1 74.5c-1.6-1.6-4.3-1.7-5.9-.1-1.6 1.6-1.7 4.3-.1 5.9l38 38.7c2-1.8 4.2-3.9 6.6-5z"/></g></g></svg>