<svg xmlns="http://www.w3.org/2000/svg" viewBox="0 0 100 150"><style>.st0{fill:#e62137;stroke:#e52331;stroke-miterlimit:10}</style><g id="Слой_2"><path class="st0" d="M28.4 125.7c-2.3 0-4.2-1.9-4.2-4.2V21.2c0-2.3 1.9-4.2 4.2-4.2 2.3 0 4.2 1.9 4.2 4.2v100.3c0 2.3-1.9 4.2-4.2 4.2zm44.8.8c-2.3 0-4.2-1.9-4.2-4.2V22c0-2.3 1.9-4.2 4.2-4.2 2.3 0 4.2 1.9 4.2 4.2v100.3c0 2.3-1.9 4.2-4.2 4.2z"/><path class="st0" d="M24.5 42.4c-.1.3-.1.6-.2.9 1.2 3.4 1.7 6.9 1.5 10l48.4 35.3c-.1-3.9-1-7.6-1.5-11.4L24.6 42c0 .1 0 .3-.1.4z"/></g></svg>