<svg version="1.1" id="Слой_2" xmlns="http://www.w3.org/2000/svg" x="0" y="0" viewBox="0 0 100 150" xml:space="preserve"><style>.st0{fill:#e62137;stroke:#e52331;stroke-miterlimit:10}</style><path class="st0" d="M48.4 127.9c-2.3 0-4.2-1.9-4.2-4.2V23.4c0-2.3 1.9-4.2 4.2-4.2 2.3 0 4.2 1.9 4.2 4.2v100.3c0 2.3-1.9 4.2-4.2 4.2z"/><g id="Слой_3"><path class="st0" d="M47.6 72.9c-1-2.1-1.7-3.5-1.8-6 0-1.8.8-3.1 1.9-3.9l-29-21.9c-1.8-1.4-4.5-1-5.9.8s-1 4.5.8 5.9l34.2 25.7c0-.2-.1-.4-.2-.6z"/><path class="st0" d="M83.7 90.2L37.2 55.1c-.4 3.1-1.5 6.2-2.8 8.4l44.3 33.4c1.8 1.4 4.5 1 5.9-.8s1-4.6-.9-5.9z"/></g></svg>