<svg xmlns="http://www.w3.org/2000/svg" viewBox="0 0 100 150"><style>.st1{fill:#e62439;stroke:#e52633;stroke-miterlimit:10}</style><g id="Слой_2"><path class="st1" d="M11 58.2c1.7 1.5 4.4 1.2 5.8-.5l30.6-36.4c1.5-1.7 1.2-4.4-.5-5.8-1.7-1.5-4.4-1.2-5.8.5L10.5 52.4c-1.5 1.7-1.2 4.3.5 5.8z"/><path class="st1" d="M10.3 52.9c-1.5 1.7-1.4 4.3.3 5.9L46 90.5c1.7 1.5 4.3 1.4 5.9-.3 1.5-1.7 1.4-4.3-.3-5.9L16.1 52.6c-1.7-1.5-4.3-1.4-5.8.3zm40.8 6.6c-1.5 1.7-1.4 4.3.3 5.9l35.4 31.7c1.7 1.5 4.3 1.4 5.9-.3 1.5-1.7 1.4-4.3-.3-5.9L56.9 59.2c-1.7-1.6-4.3-1.4-5.8.3z"/><path class="st1" d="M57.1 134.3c1.7 1.5 4.4 1.2 5.8-.5l30.6-36.4c1.5-1.7 1.2-4.4-.5-5.8-1.7-1.5-4.4-1.2-5.8.5l-30.6 36.4c-1.4 1.7-1.2 4.3.5 5.8z"/></g></svg>