<svg xmlns="http://www.w3.org/2000/svg" viewBox="0 0 100 150"><g id="Слой_2" stroke-miterlimit="10"><path d="M47.6 127.6h0c-2.3 0-4.2-1.9-4.2-4.2V23.1c0-2.3 1.9-4.2 4.2-4.2h0c2.3 0 4.2 1.9 4.2 4.2v100.3c0 2.3-1.9 4.2-4.2 4.2z" fill="#e62137" stroke="#e52331"/><path d="M74.9 47.4c1.5-1.7 1.3-4.2-.3-5.7L50.1 19.9c-1.7-1.5-4.2-1.3-5.7.3-1.5 1.7-1.3 4.2.3 5.7l24.5 21.8c1.7 1.5 4.3 1.4 5.7-.3zm-24.2 78.8c1.5-1.7 1.3-4.2-.3-5.7L25.9 98.8c-1.7-1.5-4.2-1.3-5.7.3-1.5 1.7-1.3 4.2.3 5.7L45 126.6c1.7 1.5 4.3 1.3 5.7-.4z" fill="#e62439" stroke="#e52633"/></g></svg>