<svg xmlns="http://www.w3.org/2000/svg" viewBox="0 0 100 150"><style>.st2{fill:#e62439;stroke:#e52633;stroke-miterlimit:10}</style><g id="Слой_2"><path d="M19 127.6h0c-2.3 0-4.2-1.9-4.2-4.2V23.1c0-2.3 1.9-4.2 4.2-4.2h0c2.3 0 4.2 1.9 4.2 4.2v100.3c0 2.3-1.9 4.2-4.2 4.2z" fill="#e62137" stroke="#e52331" stroke-miterlimit="10"/><path class="st2" d="M50.4 42c1.1-1.9.5-4.4-1.4-5.6L20.9 19.5c-1.9-1.1-4.4-.5-5.6 1.4-1.1 1.9-.5 4.4 1.4 5.6l28.1 16.9c1.9 1.1 4.4.5 5.6-1.4z"/><path class="st2" d="M43.5 41.6c1 2 3.5 2.8 5.4 1.8l29.2-14.9c2-1 2.8-3.5 1.8-5.4-1-2-3.5-2.8-5.4-1.8L45.3 36.1c-2 1-2.8 3.5-1.8 5.5zm-28.2 83.8c1 2 3.5 2.8 5.4 1.8l29.2-14.9c2-1 2.8-3.5 1.8-5.4-1-2-3.5-2.8-5.4-1.8L17 120c-2 1-2.8 3.4-1.7 5.4z"/><path class="st2" d="M81.1 127.5c1.1-1.9.5-4.4-1.4-5.6L51.6 105c-1.9-1.1-4.4-.5-5.6 1.4-1.1 1.9-.5 4.4 1.4 5.6l28.1 16.9c1.9 1.1 4.4.5 5.6-1.4z"/></g></svg>