<svg xmlns="http://www.w3.org/2000/svg" viewBox="0 0 100 150"><style>.st2{fill:#e62439;stroke:#e52633;stroke-miterlimit:10}</style><g id="Слой_2"><path d="M48.7 127.6h0c-2.3 0-4.2-1.9-4.2-4.2V23.1c0-2.3 1.9-4.2 4.2-4.2h0c2.3 0 4.2 1.9 4.2 4.2v100.3c-.1 2.3-1.9 4.2-4.2 4.2z" fill="#e62137" stroke="#e52331" stroke-miterlimit="10"/><path class="st2" d="M49.1 60.1c1.5-1.7 1.3-4.3-.4-5.9L13 22.8c-1.7-1.5-4.3-1.3-5.9.4-1.5 1.7-1.3 4.3.4 5.9l35.7 31.4c1.8 1.5 4.4 1.3 5.9-.4z"/><path class="st2" d="M48.7 60.3c1.5 1.7 4.2 1.8 5.9.3L90 28.9c1.7-1.5 1.8-4.2.3-5.9-1.5-1.7-4.2-1.8-5.9-.3L49 54.4c-1.7 1.6-1.9 4.2-.3 5.9z"/></g></svg>