<svg xmlns="http://www.w3.org/2000/svg" viewBox="0 0 100 150"><style>.st2{fill:#e62439;stroke:#e52633;stroke-miterlimit:10}</style><g id="Слой_2"><g id="Слой_3"><path class="st2" d="M22.9 82.6c2.1 1.3 4.8.7 6.1-1.3l40.3-62.6c1.3-2.1.7-4.8-1.3-6.1-2.1-1.3-4.8-.7-6.1 1.3L21.6 76.4c-1.4 2.1-.8 4.8 1.3 6.2zm14 51.1c2.1 1.3 4.8.7 6.1-1.3l40.3-62.6c1.3-2.1.7-4.8-1.3-6.1-2.1-1.3-4.8-.7-6.1 1.3l-40.3 62.6c-1.3 2-.7 4.8 1.3 6.1z"/><path class="st2" d="M78.5 64.1c-.1-.4-.1-.7-.1-1.1L24.9 74.7c-2.4.5-3.9 2.9-3.4 5.3s2.9 3.9 5.3 3.4l53.7-11.8c-1.1-2.2-1.7-4.9-2-7.5z"/></g></g></svg>