<svg xmlns="http://www.w3.org/2000/svg" viewBox="0 0 100 150"><style>.st1{fill:#e62439;stroke:#e52633;stroke-miterlimit:10}</style><g id="Слой_2"><path d="M48.7 127.6h0c-2.3 0-4.2-1.9-4.2-4.2V23.1c0-2.3 1.9-4.2 4.2-4.2h0c2.3 0 4.2 1.9 4.2 4.2v100.3c-.1 2.3-1.9 4.2-4.2 4.2z" fill="#e62137" stroke="#e52331" stroke-miterlimit="10" id="Слой_5"/><g id="Слой_3"><path class="st1" d="M22.2 49.2c1.6 1.6 4.2 1.5 5.7 0l23-23.3c1.6-1.6 1.5-4.2 0-5.7-1.6-1.6-4.2-1.5-5.7 0l-23 23.3c-1.6 1.5-1.6 4.1 0 5.7z"/><path class="st1" d="M75.3 49.4c1.6-1.5 1.6-4.1.1-5.7L52.6 20.2c-1.5-1.6-4.1-1.6-5.7-.1-1.6 1.5-1.6 4.1-.1 5.7l22.8 23.6c1.5 1.5 4.1 1.6 5.7 0z"/></g></g></svg>