<svg xmlns="http://www.w3.org/2000/svg" viewBox="0 0 100 150"><style>.st1{fill:#e62439;stroke:#e52633;stroke-miterlimit:10}</style><g id="Слой_2"><path d="M25.5 126h0c-2.3 0-4.2-1.9-4.2-4.2V21.5c0-2.3 1.9-4.2 4.2-4.2h0c2.3 0 4.2 1.9 4.2 4.2v100.3c0 2.3-1.9 4.2-4.2 4.2z" fill="#e62137" stroke="#e52331" stroke-miterlimit="10" id="Слой_5"/><g id="Слой_3"><path class="st1" d="M59.2 49.9c1.5-1.7 1.3-4.3-.4-5.7L28.7 18.3c-1.7-1.5-4.2-1.3-5.7.4-1.5 1.7-1.3 4.3.4 5.7l30.1 25.9c1.7 1.4 4.3 1.2 5.7-.4z"/><path class="st1" d="M23 76.2c1.5 1.7 4 1.9 5.7.4l30-25.9c1.7-1.5 1.9-4 .4-5.7-1.5-1.7-4-1.9-5.7-.4l-30 25.9c-1.6 1.4-1.8 4-.4 5.7z"/><path class="st1" d="M59.2 98.5c1.5-1.7 1.3-4.3-.4-5.7L28.7 67c-1.7-1.5-4.3-1.3-5.7.4-1.5 1.7-1.3 4.3.4 5.7L53.5 99c1.7 1.4 4.3 1.2 5.7-.5z"/><path class="st1" d="M23 124.6c1.5 1.7 4 1.9 5.7.4l30-25.9c1.7-1.5 1.9-4 .4-5.7-1.5-1.7-4-1.9-5.7-.4l-30 25.9c-1.6 1.4-1.8 4-.4 5.7z"/></g></g></svg>