<svg xmlns="http://www.w3.org/2000/svg" viewBox="0 0 100 150"><style>.st1{stroke-miterlimit:10;fill:#e62439;stroke:#e52633}</style><g id="Слой_2"><path d="M25.5 126c-2.3 0-4.2-1.9-4.2-4.2V21.5c0-2.3 1.9-4.2 4.2-4.2 2.3 0 4.2 1.9 4.2 4.2v100.3c0 2.3-1.9 4.2-4.2 4.2zm48.4.5c-2.3 0-4.2-1.9-4.2-4.2V22c0-2.3 1.9-4.2 4.2-4.2 2.3 0 4.2 1.9 4.2 4.2v100.3c0 2.3-1.9 4.2-4.2 4.2z" fill="#e62137" stroke="#e52331" stroke-miterlimit="10" id="Слой_5"/><g id="Слой_3"><path class="st1" d="M52 46.7c1.5-1.6 1.5-4.2-.1-5.7L28.1 18.4c-1.6-1.5-4.2-1.5-5.7.1s-1.5 4.2.1 5.7l23.8 22.6c1.6 1.6 4.2 1.5 5.7-.1z"/><path class="st1" d="M46.8 46.5c1.5 1.6 4.1 1.7 5.7.2l24.1-22.2c1.6-1.5 1.7-4.1.2-5.7-1.5-1.6-4.1-1.7-5.7-.2L47 40.8c-1.6 1.5-1.7 4-.2 5.7z"/></g></g></svg>