<svg xmlns="http://www.w3.org/2000/svg" viewBox="0 0 100 150"><style>.st1{stroke-miterlimit:10;fill:#e62439;stroke:#e52633}</style><g id="Слой_2"><g id="Слой_5"><path d="M25.5 126c-2.3 0-4.2-1.9-4.2-4.2V21.5c0-2.3 1.9-4.2 4.2-4.2 2.3 0 4.2 1.9 4.2 4.2v100.3c0 2.3-1.9 4.2-4.2 4.2zm55.7 0c-2.3 0-4.2-1.9-4.2-4.2V21.5c0-2.3 1.9-4.2 4.2-4.2 2.3 0 4.2 1.9 4.2 4.2v100.3c-.1 2.3-1.9 4.2-4.2 4.2z" fill="#e62137" stroke="#e52331" stroke-miterlimit="10"/><path class="st1" d="M81.4 77.7c1.7-1.7 1.7-4.6 0-6.3L28.9 18.6c-1.7-1.7-4.6-1.7-6.3 0-1.7 1.7-1.7 4.6 0 6.3l52.6 52.8c1.7 1.7 4.5 1.7 6.2 0z"/><path class="st1" d="M24.2 79.3c1.7 1.7 4.6 1.7 6.3 0l52.3-53c1.7-1.7 1.7-4.6 0-6.3-1.7-1.7-4.6-1.7-6.3 0L24.1 73c-1.7 1.7-1.7 4.5.1 6.3z"/></g></g></svg>