<svg xmlns="http://www.w3.org/2000/svg" viewBox="0 0 100 150"><style>.st3{fill:#e62439;stroke:#e52633;stroke-miterlimit:10}</style><g id="Слой_6"><path class="st3" d="M18.8 71.5c1.7 1.7 4.6 1.7 6.3 0l52.7-52.7c1.7-1.7 1.7-4.6 0-6.3-1.7-1.7-4.6-1.7-6.3 0L18.8 65.2c-1.7 1.7-1.7 4.5 0 6.3z"/><path class="st3" d="M79.8 71.1c1.7-1.8 1.7-4.6-.1-6.3l-53.3-52c-1.8-1.7-4.6-1.7-6.3.1-1.7 1.8-1.7 4.6.1 6.3l53.3 52c1.8 1.7 4.6 1.6 6.3-.1zm-1.7 52.8c1.7-1.8 1.7-4.6-.1-6.3l-53.3-52c-1.8-1.7-4.6-1.7-6.3.1-1.7 1.8-1.7 4.6.1 6.3l53.3 52c1.8 1.7 4.6 1.7 6.3-.1z"/><path class="st3" d="M20.5 124.3c1.7 1.7 4.6 1.7 6.3 0l52.7-52.7c1.7-1.7 1.7-4.6 0-6.3-1.7-1.7-4.6-1.7-6.3 0L20.5 118c-1.7 1.7-1.7 4.6 0 6.3z"/></g></svg>