<svg xmlns="http://www.w3.org/2000/svg" viewBox="0 0 100 150"><style>.st0{fill:#e62137;stroke:#e52331;stroke-miterlimit:10}</style><g id="Слой_2"><g id="Слой_5"><path class="st0" d="M20.8 125.2c-2.3 0-4.2-1.9-4.2-4.2V20.7c0-2.3 1.9-4.2 4.2-4.2 2.3 0 4.2 1.9 4.2 4.2V121c-.1 2.3-1.9 4.2-4.2 4.2zm61.8 0c-2.3 0-4.2-1.9-4.2-4.2V20.7c0-2.3 1.9-4.2 4.2-4.2 2.3 0 4.2 1.9 4.2 4.2V121c0 2.3-1.9 4.2-4.2 4.2z"/><path class="st0" d="M19.2 123.8c-2-1.2-2.6-3.8-1.4-5.7l52.5-85.5c1.2-2 3.8-2.6 5.7-1.4 2 1.2 2.6 3.8 1.4 5.7l-52.5 85.5c-1.2 2-3.8 2.6-5.7 1.4z"/><path class="st0" d="M28 109.7c-2-1.2-2.6-3.8-1.4-5.7l52.5-85.5c1.2-2 3.8-2.6 5.7-1.4 2 1.2 2.6 3.8 1.4 5.7l-52.5 85.5c-1.2 2-3.8 2.6-5.7 1.4z"/><path class="st0" d="M75.6 109.7c-2 1.2-4.5.6-5.8-1.4L17.2 22.9c-1.2-2-.6-4.5 1.4-5.8 2-1.2 4.5-.6 5.8 1.4L77 103.9c1.2 2 .5 4.6-1.4 5.8z"/><path class="st0" d="M84.9 124.8c-2 1.2-4.5.6-5.8-1.4L26.5 38c-1.2-2-.6-4.5 1.4-5.8 2-1.2 4.5-.6 5.8 1.4L86.3 119c1.2 2 .6 4.6-1.4 5.8z"/></g></g></svg>