<svg xmlns="http://www.w3.org/2000/svg" viewBox="0 0 100 150"><style>.st0{fill:#e62137;stroke:#e52331;stroke-miterlimit:10}</style><g id="Слой_2"><g id="Слой_5"><path class="st0" d="M88 131.4c-1.7 1.5-4.4 1.4-5.9-.3L14.9 56.5c-1.5-1.7-1.4-4.4.3-5.9s4.4-1.4 5.9.3l67.1 74.5c1.6 1.8 1.5 4.4-.2 6z"/><path class="st0" d="M19.1 131.1c-1.7-1.5-1.8-4.2-.3-5.9l67.6-74.1c1.5-1.7 4.2-1.8 5.9-.3 1.7 1.5 1.8 4.2.3 5.9L25 130.9c-1.5 1.7-4.2 1.8-5.9.2z"/><path class="st0" d="M93.1 52.2c0-.1.1-.2.1-.3L57.3 12c-1.5-1.7-4.2-1.8-5.9-.3-1.7 1.5-1.8 4.2-.3 5.9l38.4 42.6c2.1-2.3 3-4.9 3.6-8z"/><path class="st0" d="M56.2 11.7c-1.7-1.5-4.4-1.4-5.9.3L14.7 51.1c0 .4.1.7 0 1.1 0 .4-.1.8-.2 1.2 1.5 1.8 2.8 3.7 3.6 5.9.5-.9 1.3-1.6 2.3-2l36.1-39.6c1.5-1.8 1.4-4.4-.3-6z"/></g></g></svg>