<?xml version="1.0" encoding="utf-8"?><svg xmlns="http://www.w3.org/2000/svg" xmlns:xlink="http://www.w3.org/1999/xlink"><symbol viewBox="0 0 100 150" xml:space="preserve" id="01" xmlns="http://www.w3.org/2000/svg"><style>.ast0{fill:#d01317}</style><g id="aСлой_2"><path class="ast0" d="M36.3 126.1c-2.2 0-4-1.8-4-4v-103c0-2.2 1.8-4 4-4s4 1.8 4 4v103c0 2.2-1.8 4-4 4z"/><path class="ast0" d="M34.4 53.6c-1.6-1.6-1.5-4.2.1-5.7l32.4-31.7c1.6-1.6 4.2-1.5 5.7.1 1.6 1.6 1.5 4.2-.1 5.7L40.2 53.6c-1.6 1.6-4.2 1.6-5.8 0zM34.4 80.9c-1.6-1.6-1.5-4.2.1-5.7l32.4-31.7c1.6-1.6 4.2-1.5 5.7.1 1.6 1.6 1.5 4.2-.1 5.7L40.2 80.9c-1.6 1.6-4.2 1.6-5.8 0z"/></g></symbol><symbol id="02" viewBox="0 0 100 150" xml:space="preserve" xmlns="http://www.w3.org/2000/svg"><style>.bst0{fill:#d01317}</style><path class="bst0" d="M23.6 126.1c-2.2 0-4-1.8-4-4v-103c0-2.2 1.8-4 4-4s4 1.8 4 4v103c0 2.2-1.8 4-4 4zM75.5 126.7c-2.2 0-4-1.8-4-4V51.2c0-2.2 1.8-4 4-4s4 1.8 4 4v71.5c0 2.2-1.8 4-4 4z"/><path class="bst0" d="M79 53.1c-1.2 1.9-3.7 2.5-5.6 1.3L21.5 22.5c-1.9-1.2-2.5-3.7-1.3-5.6 1.2-1.9 3.7-2.5 5.6-1.3l51.9 31.9c1.8 1.2 2.4 3.7 1.3 5.6z"/></symbol><symbol id="03" viewBox="0 0 100 150" xml:space="preserve" xmlns="http://www.w3.org/2000/svg"><style>.cst0{fill:#d01317}</style><path class="cst0" d="M37.5 130.6c-2.2 0-4-1.8-4-4v-103c0-2.2 1.8-4 4-4s4 1.8 4 4v103c0 2.1-1.8 4-4 4z"/><path class="cst0" d="M65.4 73.3c-1.6 1.6-4.1 1.6-5.7 0L36.3 50.1c-1.6-1.6-1.6-4.1 0-5.7 1.6-1.6 4.1-1.6 5.7 0l23.4 23.2c1.6 1.5 1.6 4.1 0 5.7z"/><path class="cst0" d="M36.3 97c-1.6-1.6-1.6-4.2 0-5.7l23.4-23.2c1.6-1.6 4.2-1.6 5.7 0 1.6 1.6 1.6 4.2 0 5.7L42 97c-1.5 1.6-4.1 1.6-5.7 0z"/></symbol><symbol id="04" viewBox="0 0 100 150" xml:space="preserve" xmlns="http://www.w3.org/2000/svg"><style>.dst0{fill:#d01317}</style><path class="dst0" d="M35.2 128.8c-2.2 0-4-1.8-4-4v-103c0-2.2 1.8-4 4-4s4 1.8 4 4v103c0 2.2-1.8 4-4 4z"/><path class="dst0" d="M69.5 57.2c-1.6 1.5-4.2 1.5-5.7-.1L32.3 24.6c-1.5-1.6-1.5-4.2.1-5.7s4.2-1.5 5.7.1l31.5 32.5c1.6 1.6 1.5 4.2-.1 5.7zM69.5 87.3c-1.6 1.5-4.2 1.5-5.7-.1L32.3 54.7c-1.5-1.6-1.5-4.2.1-5.7s4.2-1.5 5.7.1l31.5 32.5c1.6 1.6 1.5 4.1-.1 5.7z"/></symbol><symbol id="05" viewBox="0 0 100 150" xml:space="preserve" xmlns="http://www.w3.org/2000/svg"><style>.est0{fill:#d01317}</style><path class="est0" d="M35.3 128.8c-2.2 0-4-1.8-4-4v-103c0-2.2 1.8-4 4-4s4 1.8 4 4v103c0 2.2-1.8 4-4 4z"/><path class="est0" d="M70.3 56.4c-1.6 1.6-4.1 1.6-5.7 0L32.4 24.6c-1.6-1.6-1.6-4.1 0-5.7 1.6-1.6 4.1-1.6 5.7 0l32.2 31.9c1.6 1.5 1.6 4.1 0 5.6z"/><path class="est0" d="M32.3 88.1c-1.6-1.6-1.5-4.2.1-5.7l32.3-31.7c1.6-1.6 4.2-1.5 5.7.1 1.6 1.6 1.5 4.2-.1 5.7L38 88.2c-1.6 1.6-4.1 1.5-5.7-.1z"/><path class="est0" d="M72.2 118.2c-1.6 1.6-4.1 1.6-5.7 0L34.2 86.3c-1.6-1.6-1.6-4.1 0-5.7 1.6-1.6 4.1-1.6 5.7 0l32.2 31.9c1.6 1.5 1.6 4.1.1 5.7z"/></symbol><symbol id="06" viewBox="0 0 100 150" xml:space="preserve" xmlns="http://www.w3.org/2000/svg"><style>.fst0{fill:#d01317}</style><path class="fst0" d="M19.1 73.8c-1.6-1.6-1.6-4.2 0-5.7l50.7-50.4c1.6-1.6 4.2-1.6 5.7 0 1.6 1.6 1.6 4.2 0 5.7L24.8 73.8c-1.5 1.6-4.1 1.6-5.7 0z"/><path class="fst0" d="M75.9 123.9c-1.5 1.6-4.1 1.6-5.7.1L18.9 74.2c-1.6-1.5-1.6-4.1-.1-5.7 1.5-1.6 4.1-1.6 5.7-.1l51.3 49.8c1.6 1.5 1.6 4.1.1 5.7z"/></symbol><symbol id="07" viewBox="0 0 100 150" xml:space="preserve" xmlns="http://www.w3.org/2000/svg"><style>.gst0{fill:#d01317}</style><path class="gst0" d="M81.6 116.4c-1.8 1.3-4.4.9-5.6-1l-59.7-84c-1.3-1.8-.9-4.4 1-5.6 1.8-1.3 4.4-.9 5.6 1l59.7 84c1.2 1.8.8 4.3-1 5.6z"/><path class="gst0" d="M18.8 117.6c-1.8-1.3-2.3-3.8-1-5.6l59.3-84.2c1.3-1.8 3.8-2.3 5.6-1 1.8 1.3 2.3 3.8 1 5.6l-59.3 84.2c-1.2 1.8-3.7 2.3-5.6 1z"/></symbol><symbol id="08" viewBox="0 0 100 150" xml:space="preserve" xmlns="http://www.w3.org/2000/svg"><style>.hst0{fill:#d01317}</style><path class="hst0" d="M38.4 127.5c-2.2 0-4-1.8-4-4v-103c0-2.2 1.8-4 4-4s4 1.8 4 4v103c.1 2.1-1.8 4-4 4z"/><path class="hst0" d="M73.7 54.9c-1.6 1.6-4.1 1.6-5.7.1L35.6 23.3c-1.6-1.6-1.6-4.1-.1-5.7 1.6-1.6 4.1-1.6 5.7-.1l32.4 31.7c1.6 1.5 1.7 4.1.1 5.7z"/><path class="hst0" d="M35.6 86.9c-1.6-1.6-1.6-4.2 0-5.7l32.2-31.9c1.6-1.6 4.2-1.6 5.7 0 1.6 1.6 1.6 4.2 0 5.7L41.4 87c-1.6 1.5-4.2 1.5-5.8-.1z"/></symbol><symbol id="09" viewBox="0 0 100 150" xml:space="preserve" xmlns="http://www.w3.org/2000/svg"><style>.ist0{fill:#d01317}</style><path class="ist0" d="M24.9 127.5c-2.2 0-4-1.8-4-4v-103c0-2.2 1.8-4 4-4s4 1.8 4 4v103c.1 2.1-1.7 4-4 4zM75.1 127.5c-2.2 0-4-1.8-4-4v-103c0-2.2 1.8-4 4-4s4 1.8 4 4v103c0 2.1-1.8 4-4 4z"/><path class="ist0" d="M76.8 93.7c-1.4 1.7-4 2-5.7.6L23.8 55.8c-1.7-1.4-2-4-.6-5.7 1.4-1.7 4-2 5.7-.6L76.2 88c1.7 1.4 2 3.9.6 5.7z"/></symbol><symbol id="10" viewBox="0 0 100 150" xml:space="preserve" xmlns="http://www.w3.org/2000/svg"><style>.jst0{fill:#d01317}</style><path class="jst0" d="M50 127.5c-2.2 0-4-1.8-4-4v-103c0-2.2 1.8-4 4-4s4 1.8 4 4v103c0 2.1-1.8 4-4 4z"/><path class="jst0" d="M74.8 95.9c-1.5 1.6-4.1 1.6-5.7.1L25.3 53.6c-1.6-1.5-1.6-4.1-.1-5.7 1.5-1.6 4.1-1.6 5.7-.1l43.8 42.4c1.6 1.5 1.7 4.1.1 5.7z"/></symbol><symbol viewBox="0 0 100 150" xml:space="preserve" id="11" xmlns="http://www.w3.org/2000/svg"><path d="M50 127.5c-2.2 0-4-1.8-4-4v-103c0-2.2 1.8-4 4-4s4 1.8 4 4v103c0 2.1-1.8 4-4 4z" style=""/></symbol><symbol id="12" viewBox="0 0 100 150" xml:space="preserve" xmlns="http://www.w3.org/2000/svg"><style>.lst0{fill:#d01317}</style><path class="lst0" d="M10.6 60.6c-1.6-1.6-1.5-4.2 0-5.7L54 12c1.6-1.6 4.2-1.5 5.7 0 1.6 1.6 1.5 4.2 0 5.7L16.3 60.6c-1.5 1.6-4.1 1.5-5.7 0zM91.7 84.7c-1.6 1.6-4.1 1.6-5.7 0L53.7 53c-1.6-1.6-1.6-4.1 0-5.7 1.6-1.6 4.1-1.6 5.7 0L91.6 79c1.6 1.6 1.6 4.1.1 5.7z"/><path class="lst0" d="M49.3 93.2c-1.6 1.6-4.1 1.6-5.7 0L11.3 61.4c-1.6-1.6-1.6-4.1 0-5.7 1.6-1.6 4.1-1.6 5.7 0l32.3 31.8c1.6 1.5 1.6 4.1 0 5.7zM43.2 128.4c-1.6-1.6-1.5-4.2 0-5.7l43.4-42.8c1.6-1.6 4.2-1.5 5.7 0 1.6 1.6 1.5 4.2 0 5.7L49 128.4c-1.6 1.5-4.2 1.5-5.8 0z"/></symbol><symbol id="13" viewBox="0 0 100 150" xml:space="preserve" xmlns="http://www.w3.org/2000/svg"><style>.mst0{fill:#d01317}</style><path class="mst0" d="M50 128.5c-2.2 0-4-1.8-4-4v-103c0-2.2 1.8-4 4-4s4 1.8 4 4v103c0 2.2-1.8 4-4 4z"/><path class="mst0" d="M76.4 47.4c-1.6 1.6-4.1 1.6-5.7.1l-23.5-23c-1.6-1.6-1.6-4.1-.1-5.7 1.6-1.6 4.1-1.6 5.7-.1l23.5 23c1.6 1.5 1.6 4.1.1 5.7zM52.2 127.3c-1.6 1.6-4.1 1.6-5.7.1l-23.5-23c-1.6-1.6-1.6-4.1-.1-5.7 1.6-1.6 4.1-1.6 5.7-.1l23.5 23c1.7 1.6 1.7 4.1.1 5.7z"/></symbol><symbol id="14" viewBox="0 0 100 150" xml:space="preserve" xmlns="http://www.w3.org/2000/svg"><style>.nst0{fill:#d01317}</style><path class="nst0" d="M25.9 127.3c-2.2 0-4-1.8-4-4v-103c0-2.2 1.8-4 4-4s4 1.8 4 4v103c.1 2.2-1.8 4-4 4z"/><path class="nst0" d="M56.4 41.1c-1.3 1.8-3.8 2.3-5.6 1.1L23.6 23.6c-1.8-1.3-2.3-3.8-1.1-5.6 1.3-1.8 3.8-2.3 5.6-1.1l27.2 18.6c1.9 1.2 2.4 3.8 1.1 5.6z"/><path class="nst0" d="M83.9 17.8c1.3 1.8.8 4.4-1 5.6l-27 18.8c-1.8 1.3-4.4.8-5.6-1-1.3-1.8-.8-4.4 1-5.6l27-18.8c1.8-1.3 4.3-.8 5.6 1zM56.3 102.2c1.3 1.8.8 4.4-1 5.6l-27 18.8c-1.8 1.3-4.4.8-5.6-1-1.3-1.8-.8-4.4 1-5.6l27-18.8c1.8-1.3 4.3-.9 5.6 1z"/><path class="nst0" d="M84 125.4c-1.3 1.8-3.8 2.3-5.6 1.1l-27.2-18.6c-1.8-1.3-2.3-3.8-1.1-5.6 1.3-1.8 3.8-2.3 5.6-1.1l27.2 18.6c1.9 1.3 2.3 3.8 1.1 5.6z"/></symbol><symbol id="15" viewBox="0 0 100 150" xml:space="preserve" xmlns="http://www.w3.org/2000/svg"><style>.ost0{fill:#d01317}</style><path class="ost0" d="M51.2 127.3c-2.2 0-4-1.8-4-4v-103c0-2.2 1.8-4 4-4s4 1.8 4 4v103c0 2.2-1.8 4-4 4z"/><path class="ost0" d="M53.6 71.8c-1.8 1.4-4.3 1-5.7-.7L10.8 22.7c-1.4-1.8-1-4.3.7-5.7 1.8-1.4 4.3-1 5.7.7L54.3 66c1.4 1.9 1.1 4.5-.7 5.8z"/><path class="ost0" d="M48.7 72.1c-1.8-1.3-2.1-3.9-.8-5.7l36.8-48.6c1.3-1.8 3.9-2.1 5.7-.8 1.8 1.3 2.1 3.9.8 5.7L54.4 71.3c-1.4 1.7-3.9 2.1-5.7.8z"/></symbol><symbol id="16" viewBox="0 0 100 150" xml:space="preserve" xmlns="http://www.w3.org/2000/svg"><style>.pst0{fill:#d01317}</style><path class="pst0" d="M25.6 84.4c-2-.9-2.9-3.4-1.9-5.4l30.4-64.7c.9-2 3.4-2.9 5.4-1.9 2 .9 2.9 3.4 1.9 5.4L31 82.5c-1 2-3.4 2.8-5.4 1.9zM40.5 137.6c-2-.9-2.9-3.4-1.9-5.4L69 67.5c.9-2 3.4-2.9 5.4-1.9 2 .9 2.9 3.4 1.9 5.4l-30.4 64.7c-1 2-3.4 2.8-5.4 1.9z"/><path class="pst0" d="M24.3 81.6c-.6-2.1.7-4.4 2.8-5l43.7-11.9c2.1-.6 4.4.7 5 2.8.6 2.1-.7 4.4-2.8 5l-43.7 12c-2.1.6-4.4-.7-5-2.9z"/></symbol><symbol id="17" viewBox="0 0 100 150" xml:space="preserve" xmlns="http://www.w3.org/2000/svg"><style>.qst0{fill:#d01317}</style><path class="qst0" d="M49.2 126.9c-2.2 0-4-1.8-4-4v-103c0-2.2 1.8-4 4-4s4 1.8 4 4v103c0 2.2-1.8 4-4 4z"/><path class="qst0" d="M17.4 57.8c-1.7-1.4-1.9-4-.5-5.7l29.2-34.7c1.4-1.7 4-1.9 5.7-.5 1.7 1.4 1.9 4 .5 5.7L23.1 57.3c-1.4 1.7-4 1.9-5.7.5z"/><path class="qst0" d="M81.1 57.7c-1.7 1.4-4.3 1.2-5.7-.5L46.1 22.6c-1.4-1.7-1.2-4.3.5-5.7 1.7-1.4 4.3-1.2 5.7.5L81.6 52c1.4 1.7 1.2 4.3-.5 5.7z"/></symbol><symbol id="18" viewBox="0 0 100 150" xml:space="preserve" xmlns="http://www.w3.org/2000/svg"><style>.rst0{fill:#d01317}</style><path class="rst0" d="M33.9 128.5c-2.2 0-4-1.8-4-4v-103c0-2.2 1.8-4 4-4s4 1.8 4 4v103c0 2.2-1.8 4-4 4z"/><path class="rst0" d="M74.1 50c-1.3 1.8-3.8 2.2-5.6 1l-37-26.2c-1.8-1.3-2.2-3.8-1-5.6 1.3-1.8 3.8-2.2 5.6-1l37 26.2c1.9 1.3 2.3 3.8 1 5.6z"/><path class="rst0" d="M30.5 76c-1.3-1.8-.8-4.4 1.1-5.6L69 44.9c1.8-1.3 4.4-.8 5.6 1.1 1.3 1.8.8 4.4-1.1 5.6L36.2 77.1c-1.9 1.3-4.4.8-5.7-1.1z"/><path class="rst0" d="M75.9 100.6c-1.3 1.8-3.8 2.2-5.6 1l-37-26.2c-1.8-1.3-2.2-3.8-1-5.6 1.3-1.8 3.8-2.2 5.6-1l37 26.2c1.8 1.2 2.3 3.7 1 5.6z"/><path class="rst0" d="M32 126.8c-1.3-1.8-.8-4.4 1.1-5.6l37.4-25.5c1.8-1.3 4.4-.8 5.6 1.1 1.3 1.8.8 4.4-1.1 5.6l-37.4 25.5c-1.8 1.2-4.3.7-5.6-1.1z"/></symbol><symbol id="19" viewBox="0 0 100 150" xml:space="preserve" xmlns="http://www.w3.org/2000/svg"><style>.sst0{fill:#d01317}</style><path class="sst0" d="M27.1 128.5c-2.2 0-4-1.8-4-4v-103c0-2.2 1.8-4 4-4s4 1.8 4 4v103c.1 2.2-1.8 4-4 4zM76.3 128.5c-2.2 0-4-1.8-4-4v-103c0-2.2 1.8-4 4-4s4 1.8 4 4v103c.1 2.2-1.7 4-4 4z"/><path class="sst0" d="M53.5 47.4c-1.6 1.6-4.1 1.6-5.7.1L24.3 24.4c-1.6-1.6-1.6-4.1-.1-5.7 1.6-1.6 4.1-1.6 5.7-.1l23.5 23.1c1.6 1.5 1.6 4.1.1 5.7z"/><path class="sst0" d="M49 47.4c-1.6-1.6-1.5-4.2 0-5.7l23.4-23.1c1.6-1.6 4.2-1.5 5.7 0 1.6 1.6 1.5 4.2 0 5.7L54.7 47.4c-1.6 1.6-4.2 1.6-5.7 0z"/></symbol><symbol id="20" viewBox="0 0 100 150" xml:space="preserve" xmlns="http://www.w3.org/2000/svg"><style>.tst0{fill:#d01317}</style><path class="tst0" d="M20.7 128.5c-2.2 0-4-1.8-4-4v-103c0-2.2 1.8-4 4-4s4 1.8 4 4v103c0 2.2-1.8 4-4 4zM80.4 128.5c-2.2 0-4-1.8-4-4v-103c0-2.2 1.8-4 4-4s4 1.8 4 4v103c0 2.2-1.8 4-4 4z"/><path class="tst0" d="M79 75.1c-.1-.9-.1-1.7.1-2.5l-55.7-54c-1.6-1.5-4.2-1.5-5.7.1s-1.5 4.2.1 5.7L78.2 83c.7.7 1.7 1.1 2.6 1.1-.8-2.9-1.3-6-1.8-9z"/><path class="tst0" d="M82.8 19.2c-1.6-1.6-4.1-1.6-5.7 0l-58 57.3c.7 2.8.7 5.7 1 8.7 1 0 2.1-.4 2.9-1.2l59.8-59.2c1.5-1.5 1.5-4 0-5.6z"/></symbol><symbol id="21" viewBox="0 0 100 150" xml:space="preserve" xmlns="http://www.w3.org/2000/svg"><style>.ust0{fill:#d01317}</style><path class="ust0" d="M40.1 128.5c-2.2 0-4-1.8-4-4v-103c0-2.2 1.8-4 4-4s4 1.8 4 4v103c0 2.2-1.8 4-4 4z"/><path class="ust0" d="M75.5 57c-1.6 1.5-4.2 1.5-5.7-.1L38.4 24.3c-1.5-1.6-1.5-4.2.1-5.7s4.2-1.5 5.7.1l31.4 32.6c1.6 1.6 1.5 4.2-.1 5.7z"/></symbol><symbol id="22" viewBox="0 0 100 150" xml:space="preserve" xmlns="http://www.w3.org/2000/svg"><style>.vst0{fill:#d01317}</style><path class="vst0" d="M21.7 74.7c-1.6-1.6-1.5-4.2 0-5.7l50.9-50.2c1.6-1.6 4.2-1.5 5.7 0 1.6 1.6 1.5 4.2 0 5.7L27.4 74.8c-1.6 1.6-4.2 1.5-5.7-.1z"/><path class="vst0" d="M78.4 74.7c-1.6 1.6-4.1 1.6-5.7.1l-51-50.1c-1.6-1.6-1.6-4.1-.1-5.7 1.6-1.6 4.1-1.6 5.7-.1l51 50.1c1.6 1.5 1.6 4.1.1 5.7z"/><path class="vst0" d="M21.7 124.9c-1.6-1.6-1.5-4.2 0-5.7L72.6 69c1.6-1.6 4.2-1.5 5.7 0 1.6 1.6 1.5 4.2 0 5.7l-50.9 50.2c-1.6 1.6-4.2 1.6-5.7 0z"/><path class="vst0" d="M78.4 124.9c-1.6 1.6-4.1 1.6-5.7.1l-51-50.1c-1.6-1.6-1.6-4.1-.1-5.7 1.6-1.6 4.1-1.6 5.7-.1l51 50.1c1.6 1.5 1.6 4.1.1 5.7z"/></symbol><symbol id="23" viewBox="0 0 100 150" xml:space="preserve" xmlns="http://www.w3.org/2000/svg"><style>.wst0{fill:#d01317}</style><path class="wst0" d="M19 125.4c-2.2 0-4-1.8-4-4v-103c0-2.2 1.8-4 4-4s4 1.8 4 4v103c0 2.2-1.8 4-4 4zM83.9 126.8c-2.2 0-4-1.8-4-4v-103c0-2.2 1.8-4 4-4s4 1.8 4 4v103c0 2.2-1.8 4-4 4z"/><path class="wst0" d="M16.8 125.5c-1.9-1.2-2.4-3.7-1.2-5.6l55.2-87c1.2-1.9 3.7-2.4 5.6-1.2 1.9 1.2 2.4 3.7 1.2 5.6l-55.2 87c-1.2 1.8-3.7 2.4-5.6 1.2z"/><path class="wst0" d="M86.2 17.5c-.3 0-.5.1-.8.1-1 0-1.8-.2-2.5-.6-.4.2-.8.3-1.2.5-.4.1-.7.2-1.1.2L30.2 96.9c-1.2 1.9-.6 4.4 1.2 5.6 1.9 1.2 4.4.6 5.6-1.2l50.5-79.5c-.1-.2-.1-.4-.2-.6-.3-1.7-.5-2.7-1.1-3.7z"/><path class="wst0" d="M86 126.9c-1.9 1.2-4.4.6-5.6-1.3L26.2 38c-1.2-1.9-.6-4.4 1.3-5.6 1.9-1.2 4.4-.6 5.6 1.3l54.2 87.6c1.2 1.9.6 4.4-1.3 5.6z"/><path class="wst0" d="M71.6 95.9 22.8 17.1c-.3.5-.6 1-1 1.4-1.1 1.1-2.4 1.6-3.8 1.7.1 1.1-.2 2.2-.7 3.1 0 .1-.1.1-.1.2l47.5 76.7c1.2 1.9 3.7 2.5 5.6 1.3 1.9-1.2 2.5-3.7 1.3-5.6z"/></symbol><symbol id="24" viewBox="0 0 100 150" xml:space="preserve" xmlns="http://www.w3.org/2000/svg"><style>.xst0{fill:#d01317}</style><path class="xst0" d="M19 116.3c-1.6-1.6-1.5-4.2 0-5.7l60-59c1.6-1.6 4.2-1.5 5.7 0 1.6 1.6 1.5 4.2 0 5.7l-60 59c-1.6 1.6-4.2 1.6-5.7 0z"/><path class="xst0" d="M84.7 116.2c-1.6 1.6-4.1 1.6-5.7.1L19 57.4c-1.6-1.6-1.6-4.1-.1-5.7 1.6-1.6 4.1-1.6 5.7-.1l60 58.9c1.7 1.6 1.7 4.2.1 5.7z"/><path class="xst0" d="M54.8 21.8c-1.6-1.6-4.1-1.6-5.7 0l-31 30.8c1.7 2.4 2.3 5.1 4.1 7.3l32.6-32.4c1.6-1.5 1.6-4.1 0-5.7z"/><path class="xst0" d="M82.9 56.1c.5-1.6 1.2-3.2 1.7-4.8l-29.4-29c-1.6-1.6-4.2-1.5-5.7 0-1.6 1.6-1.5 4.2 0 5.7l29.8 29.4c.9-.7 2.4-1.4 3.6-1.3z"/></symbol></svg>