<?xml version="1.0" encoding="utf-8"?><svg xmlns="http://www.w3.org/2000/svg" xmlns:xlink="http://www.w3.org/1999/xlink"><symbol viewBox="0 0 100 150" id="01" xmlns="http://www.w3.org/2000/svg"><style>.ast0{fill:#e62137;stroke:#e52331;stroke-miterlimit:10}</style><g id="aСлой_2"><path class="ast0" d="M28 127.6c-2.3 0-4.2-1.9-4.2-4.2V23.1c0-2.3 1.9-4.2 4.2-4.2 2.3 0 4.2 1.9 4.2 4.2v100.3c0 2.3-1.9 4.2-4.2 4.2z"/><path class="ast0" d="M75.1 20.7c-1.3-1.9-3.9-2.3-5.8-1l-45 31.5c0 .1.1.2.1.4.6 2.5.9 5 .7 7.5v1.7l49-34.3c1.9-1.3 2.3-3.9 1-5.8zm0 28.9c-1.3-1.9-3.9-2.3-5.8-1l-45 31.5c0 .1.1.2.1.4.6 2.5.9 5 .7 7.5v1.7l49-34.3c1.9-1.3 2.3-4 1-5.8z"/></g></symbol><symbol viewBox="0 0 100 150" id="02" xmlns="http://www.w3.org/2000/svg"><style>.bst0{fill:#e62137;stroke:#e52331;stroke-miterlimit:10}</style><g id="bСлой_2"><path class="bst0" d="M28 127.6c-2.3 0-4.2-1.9-4.2-4.2V23.1c0-2.3 1.9-4.2 4.2-4.2 2.3 0 4.2 1.9 4.2 4.2v100.3c0 2.3-1.9 4.2-4.2 4.2zM78.3 76c-2.8 0-5.6.1-8.2-.6v48c0 2.3 1.9 4.2 4.2 4.2s4.2-1.9 4.2-4.2V76h-.2z"/><path class="bst0" d="M78.5 97.7v-47c0-2.3-1.9-4.2-4.2-4.2s-4.2 1.9-4.2 4.2v47.1c2.7-.4 5.7-.8 8.4-.1z"/><path class="bst0" d="M74.9 49.1c.3-.8.8-1.5 1.4-2.1L30.5 19.5c-2-1.2-4.6-.5-5.7 1.4s-.5 4.6 1.4 5.7l48.4 29.1c-.6-2.1-.5-4.4.3-6.6z"/></g></symbol><symbol viewBox="0 0 100 150" id="03" xmlns="http://www.w3.org/2000/svg"><style>.cst0{fill:#e62137;stroke:#e52331;stroke-miterlimit:10}</style><g id="cСлой_2"><path class="cst0" d="M28 127.6c-2.3 0-4.2-1.9-4.2-4.2V23.1c0-2.3 1.9-4.2 4.2-4.2 2.3 0 4.2 1.9 4.2 4.2v100.3c0 2.3-1.9 4.2-4.2 4.2z"/><path class="cst0" d="M62.3 67.7 28.1 36.9c.2 3.2.6 6.3-.5 9.5-.1.3-.3.6-.4.9l29.5 26.6c1.7 1.5 4.4 1.4 5.9-.3s1.4-4.3-.3-5.9z"/><path class="cst0" d="M62.8 68.7c-1.4-1.8-4-2.2-5.9-.8l-31.2 24c1.6 2.5 2.5 5.4 2.8 8.4L62 74.5c1.8-1.4 2.2-4 .8-5.8z"/></g></symbol><symbol viewBox="0 0 100 150" id="04" xmlns="http://www.w3.org/2000/svg"><style>.dst0{fill:#e62137;stroke:#e52331;stroke-miterlimit:10}</style><g id="dСлой_2"><path class="dst0" d="M28 127.6c-2.3 0-4.2-1.9-4.2-4.2V23.1c0-2.3 1.9-4.2 4.2-4.2 2.3 0 4.2 1.9 4.2 4.2v100.3c0 2.3-1.9 4.2-4.2 4.2z"/><path class="dst0" d="M66.1 46.9 30 19.4c-.7.4-1.5.6-2.4.6-.3 0-.6 0-.9-.1-.2.8-.6 1.5-1.2 2.1.4 1.4.3 3-.4 4.2l35.8 27.2c1.8 1.4 4.5 1 5.9-.8 1.5-1.7 1.2-4.4-.7-5.7zm0 29.8L25.4 45.8c0 .1-.1.1-.1.2-.1.2-.3.3-.5.4 0 2.9.1 5.8.1 8.7 0 .3 0 .5-.1.8L61 83.4c1.8 1.4 4.5 1 5.9-.8 1.4-1.9 1.1-4.5-.8-5.9z"/></g></symbol><symbol viewBox="0 0 100 150" id="05" xmlns="http://www.w3.org/2000/svg"><style>.est0{fill:#e62137;stroke:#e52331;stroke-miterlimit:10}</style><g id="eСлой_2"><path class="est0" d="M28 127.6c-2.3 0-4.2-1.9-4.2-4.2V23.1c0-2.3 1.9-4.2 4.2-4.2 2.3 0 4.2 1.9 4.2 4.2v100.3c0 2.3-1.9 4.2-4.2 4.2z"/><path class="est0" d="m68.3 46.1-39.1-27c-.2.1-.3.2-.5.3 0 0-.5.3-.7.4l-.5.5c-.2.2-.3.5-.5.8-.2.3-.4.7-.5 1 0 0-.1.3-.2.4-.1.2-.3.7-.3.7l-.3.9c-.3.7-.7 1.4-1.2 1.9l39 26.9c1.9 1.3 4.5.8 5.8-1.1 1.3-1.7.9-4.3-1-5.7z"/><path class="est0" d="M68.6 48.6c-1.3-1.9-3.9-2.5-5.8-1.2L26.7 70.8c.1 3.2.4 6.4.5 9.6l40.1-26c2-1.2 2.5-3.8 1.3-5.8z"/><path class="est0" d="M66.4 107.5 26.7 72.9c0 3.2.2 6.4 1.2 9.5.3 1 .3 2 .1 2.8l32.9 28.7c1.7 1.5 4.4 1.3 5.9-.4 1.5-1.8 1.3-4.5-.4-6z"/></g></symbol><symbol viewBox="0 0 100 150" id="06" xmlns="http://www.w3.org/2000/svg"><style>.fst0{fill:#e62137;stroke:#e52331;stroke-miterlimit:10}</style><g id="fСлой_2"><g id="fСлой_3"><path class="fst0" d="M75.5 25.2c-1.6-1.6-4.3-1.6-5.9.1L25.3 70.5c.4.6.7 1.3.8 2l.6.6c.8.8 1.7 1.6 2.4 2.5.4.5.8 1.1 1.2 1.7l45.2-46.1c1.6-1.7 1.6-4.4 0-6z"/><path class="fst0" d="M60.8 34.3 22.1 73.7c-1.6 1.6-1.6 4.3.1 5.9 1.6 1.6 4.3 1.6 5.9-.1l38-38.7c-2-2-4.2-4.2-5.3-6.5z"/><path class="fst0" d="M75.5 128.8c1.6-1.6 1.7-4.3.1-5.9L31.3 77.8c-.6.4-1.3.7-2 .8l-.6.6c-.8.8-1.6 1.7-2.5 2.4-.5.4-1.1.8-1.7 1.1l45.2 46.1c1.5 1.6 4.2 1.7 5.8 0z"/><path class="fst0" d="M66.7 114 28.1 74.5c-1.6-1.6-4.3-1.7-5.9-.1-1.6 1.6-1.7 4.3-.1 5.9l38 38.7c2-1.8 4.2-3.9 6.6-5z"/></g></g></symbol><symbol viewBox="0 0 100 150" id="07" xmlns="http://www.w3.org/2000/svg"><style>.gst0{fill:#e62137;stroke:#e52331;stroke-miterlimit:10}</style><g id="gСлой_2"><path class="gst0" d="M22.5 119.9c-2-1.2-2.7-3.7-1.5-5.7l50.7-86.6c1.2-2 3.7-2.7 5.7-1.5 2 1.2 2.7 3.7 1.5 5.7l-50.7 86.6c-1.1 2-3.7 2.6-5.7 1.5z"/><path class="gst0" d="M76.9 120.2c-2 1.1-4.6.4-5.7-1.6L21.5 31.5c-1.1-2-.4-4.6 1.6-5.7 2-1.1 4.6-.4 5.7 1.6l49.7 87.2c1.1 1.9.4 4.5-1.6 5.6z"/></g></symbol><symbol viewBox="0 0 100 150" id="08" xmlns="http://www.w3.org/2000/svg"><style>.hst0{fill:#e62137;stroke:#e52331;stroke-miterlimit:10}</style><g id="hСлой_2"><path class="hst0" d="M28.4 125.7c-2.3 0-4.2-1.9-4.2-4.2V21.2c0-2.3 1.9-4.2 4.2-4.2 2.3 0 4.2 1.9 4.2 4.2v100.3c0 2.3-1.9 4.2-4.2 4.2z"/><path class="hst0" d="M64.4 44.6 30.6 17.8c-.4.1-.7.1-1.1.1-1.8 0-3.4 3.8-4.7 5.9l34.4 27.3c1.8 1.4 4.4 1.1 5.9-.7 1.4-1.7 1.1-4.4-.7-5.8z"/><path class="hst0" d="M59.2 45.1 25.3 71.8c0 .4 0 .7-.1 1.1-.4 1.7 2.9 4.2 4.7 5.9l34.5-27.2c1.8-1.4 2.1-4.1.7-5.9-1.4-1.7-4.1-2-5.9-.6z"/></g></symbol><symbol viewBox="0 0 100 150" xml:space="preserve" id="09" xmlns="http://www.w3.org/2000/svg"><style>.ist0{fill:#e62137;stroke:#e52331;stroke-miterlimit:10}</style><g id="iСлой_2"><path class="ist0" d="M28.4 125.7c-2.3 0-4.2-1.9-4.2-4.2V21.2c0-2.3 1.9-4.2 4.2-4.2 2.3 0 4.2 1.9 4.2 4.2v100.3c0 2.3-1.9 4.2-4.2 4.2zM73.2 126.5c-2.3 0-4.2-1.9-4.2-4.2V22c0-2.3 1.9-4.2 4.2-4.2 2.3 0 4.2 1.9 4.2 4.2v100.3c0 2.3-1.9 4.2-4.2 4.2z"/><path class="ist0" d="M24.5 42.4c-.1.3-.1.6-.2.9 1.2 3.4 1.7 6.9 1.5 10l48.4 35.3c-.1-3.9-1-7.6-1.5-11.4L24.6 42c0 .1 0 .3-.1.4z"/></g></symbol><symbol id="10" viewBox="0 0 100 150" xml:space="preserve" xmlns="http://www.w3.org/2000/svg"><style>.jst0{fill:#e62137;stroke:#e52331;stroke-miterlimit:10}</style><path class="jst0" d="M48.4 127.9c-2.3 0-4.2-1.9-4.2-4.2V23.4c0-2.3 1.9-4.2 4.2-4.2 2.3 0 4.2 1.9 4.2 4.2v100.3c0 2.3-1.9 4.2-4.2 4.2z"/><g id="jСлой_3"><path class="jst0" d="M47.6 72.9c-1-2.1-1.7-3.5-1.8-6 0-1.8.8-3.1 1.9-3.9l-29-21.9c-1.8-1.4-4.5-1-5.9.8s-1 4.5.8 5.9l34.2 25.7c0-.2-.1-.4-.2-.6z"/><path class="jst0" d="M83.7 90.2 37.2 55.1c-.4 3.1-1.5 6.2-2.8 8.4l44.3 33.4c1.8 1.4 4.5 1 5.9-.8s1-4.6-.9-5.9z"/></g></symbol><symbol viewBox="0 0 100 150" xml:space="preserve" id="11" xmlns="http://www.w3.org/2000/svg"><path d="M50 126.4c-2.3 0-4.2-1.9-4.2-4.2V21.9c0-2.3 1.9-4.2 4.2-4.2 2.3 0 4.2 1.9 4.2 4.2v100.3c0 2.3-1.9 4.2-4.2 4.2z" style="stroke-miterlimit:10"/></symbol><symbol viewBox="0 0 100 150" xml:space="preserve" id="12" xmlns="http://www.w3.org/2000/svg"><style>.lst1{fill:#e62439;stroke:#e52633;stroke-miterlimit:10}</style><g id="lСлой_2"><path class="lst1" d="M11 58.2c1.7 1.5 4.4 1.2 5.8-.5l30.6-36.4c1.5-1.7 1.2-4.4-.5-5.8-1.7-1.5-4.4-1.2-5.8.5L10.5 52.4c-1.5 1.7-1.2 4.3.5 5.8z"/><path class="lst1" d="M10.3 52.9c-1.5 1.7-1.4 4.3.3 5.9L46 90.5c1.7 1.5 4.3 1.4 5.9-.3 1.5-1.7 1.4-4.3-.3-5.9L16.1 52.6c-1.7-1.5-4.3-1.4-5.8.3zM51.1 59.5c-1.5 1.7-1.4 4.3.3 5.9l35.4 31.7c1.7 1.5 4.3 1.4 5.9-.3 1.5-1.7 1.4-4.3-.3-5.9L56.9 59.2c-1.7-1.6-4.3-1.4-5.8.3z"/><path class="lst1" d="M57.1 134.3c1.7 1.5 4.4 1.2 5.8-.5l30.6-36.4c1.5-1.7 1.2-4.4-.5-5.8-1.7-1.5-4.4-1.2-5.8.5l-30.6 36.4c-1.4 1.7-1.2 4.3.5 5.8z"/></g></symbol><symbol viewBox="0 0 100 150" xml:space="preserve" id="13" xmlns="http://www.w3.org/2000/svg"><style>.mst2{fill:#e62439;stroke:#e52633;stroke-miterlimit:10}</style><g id="mСлой_2"><path d="M47.6 127.6c-2.3 0-4.2-1.9-4.2-4.2V23.1c0-2.3 1.9-4.2 4.2-4.2 2.3 0 4.2 1.9 4.2 4.2v100.3c0 2.3-1.9 4.2-4.2 4.2z" style="stroke-miterlimit:10"/><path class="mst2" d="M74.9 47.4c1.5-1.7 1.3-4.2-.3-5.7L50.1 19.9c-1.7-1.5-4.2-1.3-5.7.3-1.5 1.7-1.3 4.2.3 5.7l24.5 21.8c1.7 1.5 4.3 1.4 5.7-.3zM50.7 126.2c1.5-1.7 1.3-4.2-.3-5.7L25.9 98.8c-1.7-1.5-4.2-1.3-5.7.3-1.5 1.7-1.3 4.2.3 5.7L45 126.6c1.7 1.5 4.3 1.3 5.7-.4z"/></g></symbol><symbol viewBox="0 0 100 150" xml:space="preserve" id="14" xmlns="http://www.w3.org/2000/svg"><style>.nst2{fill:#e62439;stroke:#e52633;stroke-miterlimit:10}</style><g id="nСлой_2"><path d="M19 127.6c-2.3 0-4.2-1.9-4.2-4.2V23.1c0-2.3 1.9-4.2 4.2-4.2 2.3 0 4.2 1.9 4.2 4.2v100.3c0 2.3-1.9 4.2-4.2 4.2z" style="stroke-miterlimit:10"/><path class="nst2" d="M50.4 42c1.1-1.9.5-4.4-1.4-5.6L20.9 19.5c-1.9-1.1-4.4-.5-5.6 1.4-1.1 1.9-.5 4.4 1.4 5.6l28.1 16.9c1.9 1.1 4.4.5 5.6-1.4z"/><path class="nst2" d="M43.5 41.6c1 2 3.5 2.8 5.4 1.8l29.2-14.9c2-1 2.8-3.5 1.8-5.4-1-2-3.5-2.8-5.4-1.8L45.3 36.1c-2 1-2.8 3.5-1.8 5.5zM15.3 125.4c1 2 3.5 2.8 5.4 1.8l29.2-14.9c2-1 2.8-3.5 1.8-5.4-1-2-3.5-2.8-5.4-1.8L17 120c-2 1-2.8 3.4-1.7 5.4z"/><path class="nst2" d="M81.1 127.5c1.1-1.9.5-4.4-1.4-5.6L51.6 105c-1.9-1.1-4.4-.5-5.6 1.4-1.1 1.9-.5 4.4 1.4 5.6l28.1 16.9c1.9 1.1 4.4.5 5.6-1.4z"/></g></symbol><symbol viewBox="0 0 100 150" xml:space="preserve" id="15" xmlns="http://www.w3.org/2000/svg"><style>.ost2{fill:#e62439;stroke:#e52633;stroke-miterlimit:10}</style><g id="oСлой_2"><path d="M48.7 127.6c-2.3 0-4.2-1.9-4.2-4.2V23.1c0-2.3 1.9-4.2 4.2-4.2 2.3 0 4.2 1.9 4.2 4.2v100.3c-.1 2.3-1.9 4.2-4.2 4.2z" style="stroke-miterlimit:10"/><path class="ost2" d="M49.1 60.1c1.5-1.7 1.3-4.3-.4-5.9L13 22.8c-1.7-1.5-4.3-1.3-5.9.4-1.5 1.7-1.3 4.3.4 5.9l35.7 31.4c1.8 1.5 4.4 1.3 5.9-.4z"/><path class="ost2" d="M48.7 60.3c1.5 1.7 4.2 1.8 5.9.3L90 28.9c1.7-1.5 1.8-4.2.3-5.9-1.5-1.7-4.2-1.8-5.9-.3L49 54.4c-1.7 1.6-1.9 4.2-.3 5.9z"/></g></symbol><symbol viewBox="0 0 100 150" xml:space="preserve" id="16" xmlns="http://www.w3.org/2000/svg"><style>.pst2{fill:#e62439;stroke:#e52633;stroke-miterlimit:10}</style><g id="pСлой_2"><g id="pСлой_3"><path class="pst2" d="M22.9 82.6c2.1 1.3 4.8.7 6.1-1.3l40.3-62.6c1.3-2.1.7-4.8-1.3-6.1-2.1-1.3-4.8-.7-6.1 1.3L21.6 76.4c-1.4 2.1-.8 4.8 1.3 6.2zM36.9 133.7c2.1 1.3 4.8.7 6.1-1.3l40.3-62.6c1.3-2.1.7-4.8-1.3-6.1-2.1-1.3-4.8-.7-6.1 1.3l-40.3 62.6c-1.3 2-.7 4.8 1.3 6.1z"/><path class="pst2" d="M78.5 64.1c-.1-.4-.1-.7-.1-1.1L24.9 74.7c-2.4.5-3.9 2.9-3.4 5.3s2.9 3.9 5.3 3.4l53.7-11.8c-1.1-2.2-1.7-4.9-2-7.5z"/></g></g></symbol><symbol viewBox="0 0 100 150" xml:space="preserve" id="17" xmlns="http://www.w3.org/2000/svg"><style>.qst1{fill:#e62439;stroke:#e52633;stroke-miterlimit:10}</style><g id="qСлой_2"><path d="M48.7 127.6c-2.3 0-4.2-1.9-4.2-4.2V23.1c0-2.3 1.9-4.2 4.2-4.2 2.3 0 4.2 1.9 4.2 4.2v100.3c-.1 2.3-1.9 4.2-4.2 4.2z" style="stroke-miterlimit:10" id="qСлой_5"/><g id="qСлой_3"><path class="qst1" d="M22.2 49.2c1.6 1.6 4.2 1.5 5.7 0l23-23.3c1.6-1.6 1.5-4.2 0-5.7-1.6-1.6-4.2-1.5-5.7 0l-23 23.3c-1.6 1.5-1.6 4.1 0 5.7z"/><path class="qst1" d="M75.3 49.4c1.6-1.5 1.6-4.1.1-5.7L52.6 20.2c-1.5-1.6-4.1-1.6-5.7-.1-1.6 1.5-1.6 4.1-.1 5.7l22.8 23.6c1.5 1.5 4.1 1.6 5.7 0z"/></g></g></symbol><symbol viewBox="0 0 100 150" xml:space="preserve" id="18" xmlns="http://www.w3.org/2000/svg"><style>.rst1{fill:#e62439;stroke:#e52633;stroke-miterlimit:10}</style><g id="rСлой_2"><path d="M25.5 126c-2.3 0-4.2-1.9-4.2-4.2V21.5c0-2.3 1.9-4.2 4.2-4.2 2.3 0 4.2 1.9 4.2 4.2v100.3c0 2.3-1.9 4.2-4.2 4.2z" style="stroke-miterlimit:10" id="rСлой_5"/><g id="rСлой_3"><path class="rst1" d="M59.2 49.9c1.5-1.7 1.3-4.3-.4-5.7L28.7 18.3c-1.7-1.5-4.2-1.3-5.7.4-1.5 1.7-1.3 4.3.4 5.7l30.1 25.9c1.7 1.4 4.3 1.2 5.7-.4z"/><path class="rst1" d="M23 76.2c1.5 1.7 4 1.9 5.7.4l30-25.9c1.7-1.5 1.9-4 .4-5.7-1.5-1.7-4-1.9-5.7-.4l-30 25.9c-1.6 1.4-1.8 4-.4 5.7z"/><path class="rst1" d="M59.2 98.5c1.5-1.7 1.3-4.3-.4-5.7L28.7 67c-1.7-1.5-4.3-1.3-5.7.4-1.5 1.7-1.3 4.3.4 5.7L53.5 99c1.7 1.4 4.3 1.2 5.7-.5z"/><path class="rst1" d="M23 124.6c1.5 1.7 4 1.9 5.7.4l30-25.9c1.7-1.5 1.9-4 .4-5.7-1.5-1.7-4-1.9-5.7-.4l-30 25.9c-1.6 1.4-1.8 4-.4 5.7z"/></g></g></symbol><symbol viewBox="0 0 100 150" xml:space="preserve" id="19" xmlns="http://www.w3.org/2000/svg"><style>.sst0,.sst1{fill:#e62137;stroke:#e52331;stroke-miterlimit:10}.sst1{fill:#e62439;stroke:#e52633}</style><g id="sСлой_2"><g id="sСлой_5"><path class="sst0" d="M25.5 126c-2.3 0-4.2-1.9-4.2-4.2V21.5c0-2.3 1.9-4.2 4.2-4.2 2.3 0 4.2 1.9 4.2 4.2v100.3c0 2.3-1.9 4.2-4.2 4.2zM73.9 126.5c-2.3 0-4.2-1.9-4.2-4.2V22c0-2.3 1.9-4.2 4.2-4.2 2.3 0 4.2 1.9 4.2 4.2v100.3c0 2.3-1.9 4.2-4.2 4.2z"/></g><g id="sСлой_3"><path class="sst1" d="M52 46.7c1.5-1.6 1.5-4.2-.1-5.7L28.1 18.4c-1.6-1.5-4.2-1.5-5.7.1s-1.5 4.2.1 5.7l23.8 22.6c1.6 1.6 4.2 1.5 5.7-.1z"/><path class="sst1" d="M46.8 46.5c1.5 1.6 4.1 1.7 5.7.2l24.1-22.2c1.6-1.5 1.7-4.1.2-5.7-1.5-1.6-4.1-1.7-5.7-.2L47 40.8c-1.6 1.5-1.7 4-.2 5.7z"/></g></g></symbol><symbol viewBox="0 0 100 150" xml:space="preserve" id="20" xmlns="http://www.w3.org/2000/svg"><style>.tst0,.tst1{fill:#e62137;stroke:#e52331;stroke-miterlimit:10}.tst1{fill:#e62439;stroke:#e52633}</style><g id="tСлой_2"><g id="tСлой_5"><path class="tst0" d="M25.5 126c-2.3 0-4.2-1.9-4.2-4.2V21.5c0-2.3 1.9-4.2 4.2-4.2 2.3 0 4.2 1.9 4.2 4.2v100.3c0 2.3-1.9 4.2-4.2 4.2zM81.2 126c-2.3 0-4.2-1.9-4.2-4.2V21.5c0-2.3 1.9-4.2 4.2-4.2 2.3 0 4.2 1.9 4.2 4.2v100.3c-.1 2.3-1.9 4.2-4.2 4.2z"/><path class="tst1" d="M81.4 77.7c1.7-1.7 1.7-4.6 0-6.3L28.9 18.6c-1.7-1.7-4.6-1.7-6.3 0-1.7 1.7-1.7 4.6 0 6.3l52.6 52.8c1.7 1.7 4.5 1.7 6.2 0z"/><path class="tst1" d="M24.2 79.3c1.7 1.7 4.6 1.7 6.3 0l52.3-53c1.7-1.7 1.7-4.6 0-6.3-1.7-1.7-4.6-1.7-6.3 0L24.1 73c-1.7 1.7-1.7 4.5.1 6.3z"/></g></g></symbol><symbol viewBox="0 0 100 150" xml:space="preserve" id="21" xmlns="http://www.w3.org/2000/svg"><path d="M35.7 126c-2.3 0-4.2-1.9-4.2-4.2V21.5c0-2.3 1.9-4.2 4.2-4.2 2.3 0 4.2 1.9 4.2 4.2v100.3c0 2.3-1.9 4.2-4.2 4.2z" style="stroke-miterlimit:10"/><path d="M69.1 52.4c1.5-1.6 1.4-4.2-.2-5.7L40 19.5c-1.6-1.5-4.2-1.4-5.7.2-1.5 1.6-1.4 4.2.2 5.7l28.9 27.2c1.6 1.5 4.2 1.4 5.7-.2z" style="stroke-miterlimit:10"/></symbol><symbol viewBox="0 0 100 150" xml:space="preserve" id="22" xmlns="http://www.w3.org/2000/svg"><style>.st1{display:inline}.vst3{fill:#e62439;stroke:#e52633;stroke-miterlimit:10}</style><g id="vСлой_6"><path class="vst3" d="M18.8 71.5c1.7 1.7 4.6 1.7 6.3 0l52.7-52.7c1.7-1.7 1.7-4.6 0-6.3-1.7-1.7-4.6-1.7-6.3 0L18.8 65.2c-1.7 1.7-1.7 4.5 0 6.3z"/><path class="vst3" d="M79.8 71.1c1.7-1.8 1.7-4.6-.1-6.3l-53.3-52c-1.8-1.7-4.6-1.7-6.3.1-1.7 1.8-1.7 4.6.1 6.3l53.3 52c1.8 1.7 4.6 1.6 6.3-.1zM78.1 123.9c1.7-1.8 1.7-4.6-.1-6.3l-53.3-52c-1.8-1.7-4.6-1.7-6.3.1-1.7 1.8-1.7 4.6.1 6.3l53.3 52c1.8 1.7 4.6 1.7 6.3-.1z"/><path class="vst3" d="M20.5 124.3c1.7 1.7 4.6 1.7 6.3 0l52.7-52.7c1.7-1.7 1.7-4.6 0-6.3-1.7-1.7-4.6-1.7-6.3 0L20.5 118c-1.7 1.7-1.7 4.6 0 6.3z"/></g></symbol><symbol viewBox="0 0 100 150" xml:space="preserve" id="23" xmlns="http://www.w3.org/2000/svg"><style>.wst0{fill:#e62137;stroke:#e52331;stroke-miterlimit:10}</style><g id="wСлой_2"><g id="wСлой_5"><path class="wst0" d="M20.8 125.2c-2.3 0-4.2-1.9-4.2-4.2V20.7c0-2.3 1.9-4.2 4.2-4.2 2.3 0 4.2 1.9 4.2 4.2V121c-.1 2.3-1.9 4.2-4.2 4.2zM82.6 125.2c-2.3 0-4.2-1.9-4.2-4.2V20.7c0-2.3 1.9-4.2 4.2-4.2 2.3 0 4.2 1.9 4.2 4.2V121c0 2.3-1.9 4.2-4.2 4.2z"/><path class="wst0" d="M19.2 123.8c-2-1.2-2.6-3.8-1.4-5.7l52.5-85.5c1.2-2 3.8-2.6 5.7-1.4 2 1.2 2.6 3.8 1.4 5.7l-52.5 85.5c-1.2 2-3.8 2.6-5.7 1.4z"/><path class="wst0" d="M28 109.7c-2-1.2-2.6-3.8-1.4-5.7l52.5-85.5c1.2-2 3.8-2.6 5.7-1.4 2 1.2 2.6 3.8 1.4 5.7l-52.5 85.5c-1.2 2-3.8 2.6-5.7 1.4z"/><path class="wst0" d="M75.6 109.7c-2 1.2-4.5.6-5.8-1.4L17.2 22.9c-1.2-2-.6-4.5 1.4-5.8 2-1.2 4.5-.6 5.8 1.4L77 103.9c1.2 2 .5 4.6-1.4 5.8z"/><path class="wst0" d="M84.9 124.8c-2 1.2-4.5.6-5.8-1.4L26.5 38c-1.2-2-.6-4.5 1.4-5.8 2-1.2 4.5-.6 5.8 1.4L86.3 119c1.2 2 .6 4.6-1.4 5.8z"/></g></g></symbol><symbol viewBox="0 0 100 150" xml:space="preserve" id="24" xmlns="http://www.w3.org/2000/svg"><style>.xst0{fill:#e62137;stroke:#e52331;stroke-miterlimit:10}</style><g id="xСлой_2"><g id="xСлой_5"><path class="xst0" d="M88 131.4c-1.7 1.5-4.4 1.4-5.9-.3L14.9 56.5c-1.5-1.7-1.4-4.4.3-5.9s4.4-1.4 5.9.3l67.1 74.5c1.6 1.8 1.5 4.4-.2 6z"/><path class="xst0" d="M19.1 131.1c-1.7-1.5-1.8-4.2-.3-5.9l67.6-74.1c1.5-1.7 4.2-1.8 5.9-.3 1.7 1.5 1.8 4.2.3 5.9L25 130.9c-1.5 1.7-4.2 1.8-5.9.2z"/><path class="xst0" d="M93.1 52.2c0-.1.1-.2.1-.3L57.3 12c-1.5-1.7-4.2-1.8-5.9-.3-1.7 1.5-1.8 4.2-.3 5.9l38.4 42.6c2.1-2.3 3-4.9 3.6-8z"/><path class="xst0" d="M56.2 11.7c-1.7-1.5-4.4-1.4-5.9.3L14.7 51.1c0 .4.1.7 0 1.1 0 .4-.1.8-.2 1.2 1.5 1.8 2.8 3.7 3.6 5.9.5-.9 1.3-1.6 2.3-2l36.1-39.6c1.5-1.8 1.4-4.4-.3-6z"/></g></g></symbol></svg>